<?xml version="1.0" encoding="UTF-8" standalone="no"?>
<!-- Created with Inkscape (http://www.inkscape.org/) -->

<svg
   xmlns:dc="http://purl.org/dc/elements/1.1/"
   xmlns:cc="http://creativecommons.org/ns#"
   xmlns:rdf="http://www.w3.org/1999/02/22-rdf-syntax-ns#"
   xmlns:svg="http://www.w3.org/2000/svg"
   xmlns="http://www.w3.org/2000/svg"
   xmlns:sodipodi="http://sodipodi.sourceforge.net/DTD/sodipodi-0.dtd"
   xmlns:inkscape="http://www.inkscape.org/namespaces/inkscape"
   width="744.09448819"
   height="1052.3622047"
   id="svg2"
   version="1.1"
   inkscape:version="0.48.2 r9819"
   sodipodi:docname="bee.svg"
   inkscape:export-filename="/media/FISHBONE/LD21_fb/src/freebee.png"
   inkscape:export-xdpi="100.618"
   inkscape:export-ydpi="100.618">
  <defs
     id="defs4">
    <marker
       inkscape:stockid="DotM"
       orient="auto"
       refY="0"
       refX="0"
       id="DotM"
       style="overflow:visible">
      <path
         inkscape:connector-curvature="0"
         id="path4458"
         d="m -2.5,-1 c 0,2.76 -2.24,5 -5,5 -2.76,0 -5,-2.24 -5,-5 0,-2.76 2.24,-5 5,-5 2.76,0 5,2.24 5,5 z"
         style="fill-rule:evenodd;stroke:#000000;stroke-width:1pt;marker-start:none;marker-end:none"
         transform="matrix(0.4,0,0,0.4,2.96,0.4)" />
    </marker>
    <clipPath
       clipPathUnits="userSpaceOnUse"
       id="clipPath5044">
      <path
         transform="translate(2.4560547e-6,-1.6235351e-6)"
         sodipodi:type="arc"
         style="fill:#ffffff;fill-opacity:1;stroke:none;display:inline"
         id="path5046"
         sodipodi:cx="-42.426407"
         sodipodi:cy="1319.0425"
         sodipodi:rx="191.92899"
         sodipodi:ry="117.1777"
         d="m 149.50258,1319.0425 a 191.92899,117.1777 0 1 1 -383.85797,0 191.92899,117.1777 0 1 1 383.85797,0 z" />
    </clipPath>
    <marker
       inkscape:stockid="DotM"
       orient="auto"
       refY="0"
       refX="0"
       id="marker4165"
       style="overflow:visible">
      <path
         inkscape:connector-curvature="0"
         id="path4167"
         d="m -2.5,-1 c 0,2.76 -2.24,5 -5,5 -2.76,0 -5,-2.24 -5,-5 0,-2.76 2.24,-5 5,-5 2.76,0 5,2.24 5,5 z"
         style="fill-rule:evenodd;stroke:#000000;stroke-width:1pt;marker-start:none;marker-end:none"
         transform="matrix(0.4,0,0,0.4,2.96,0.4)" />
    </marker>
  </defs>
  <sodipodi:namedview
     id="base"
     pagecolor="#ffffff"
     bordercolor="#666666"
     borderopacity="1.0"
     inkscape:pageopacity="0.0"
     inkscape:pageshadow="2"
     inkscape:zoom="2.8"
     inkscape:cx="287.57697"
     inkscape:cy="769.82434"
     inkscape:document-units="px"
     inkscape:current-layer="layer1"
     showgrid="false"
     inkscape:window-width="1100"
     inkscape:window-height="716"
     inkscape:window-x="0"
     inkscape:window-y="26"
     inkscape:window-maximized="0" />
  <metadata
     id="metadata7">
    <rdf:RDF>
      <cc:Work
         rdf:about="">
        <dc:format>image/svg+xml</dc:format>
        <dc:type
           rdf:resource="http://purl.org/dc/dcmitype/StillImage" />
        <dc:title></dc:title>
      </cc:Work>
    </rdf:RDF>
  </metadata>
  <g
     inkscape:label="Body"
     inkscape:groupmode="layer"
     id="layer1"
     style="opacity:1">
    <g
       style="fill:#483737"
       transform="translate(14.5,14)"
       id="g3913" />
    <g
       style="fill:#483737"
       transform="translate(-3,11.857143)"
       id="g3927" />
    <g
       style="fill:#483737"
       transform="translate(-3,11.857143)"
       id="g3937" />
    <g
       style="fill:#483737"
       transform="translate(-10.5,1.5)"
       id="g3943" />
    <g
       style="fill:#483737"
       transform="matrix(0.98843027,0.15167595,-0.15167595,0.98843027,5.5264705,12.700962)"
       id="g3949" />
    <g
       style="fill:#483737"
       transform="translate(-34.428572,51.5)"
       id="g3957">
      <g
         style="fill:#483737"
         id="g3959"
         transform="translate(21.358586,-28.643218)" />
    </g>
    <path
       inkscape:connector-curvature="0"
       id="path5058"
       d="m 289.23111,319.87334 c 0,0 -5.48866,-7.82673 1.21725,-18.30242 6.70592,-10.47565 18.28282,-13.74683 21.50662,-8.20168 3.22381,5.54513 -3.11265,17.77149 -7.25038,20.95512 -4.13776,3.18362 -15.47349,5.54898 -15.47349,5.54898 z"
       style="opacity:0.69958849000000001;fill:#ffffff;stroke:#000000;stroke-width:0.54625248999999998;stroke-linecap:butt;stroke-linejoin:miter;stroke-miterlimit:4;stroke-opacity:1;stroke-dasharray:none" />
    <path
       sodipodi:type="arc"
       style="fill:#fffe00;fill-opacity:1;stroke:#000000;stroke-width:2.70066317999999983;stroke-miterlimit:4;stroke-dasharray:none;stroke-opacity:1"
       id="path4378"
       sodipodi:cx="-42.426407"
       sodipodi:cy="1319.0425"
       sodipodi:rx="191.92899"
       sodipodi:ry="117.1777"
       d="m 149.50258,1319.0425 a 191.92899,117.1777 0 1 1 -383.85797,0 191.92899,117.1777 0 1 1 383.85797,0 z"
       transform="matrix(-0.15439517,-0.00187202,-0.00187202,0.15439517,280.18401,122.71872)" />
    <g
       id="g5022"
       clip-path="url(#clipPath5044)"
       transform="matrix(-0.15439517,-0.00187202,-0.00187202,0.15439517,280.18401,122.71872)">
      <path
         inkscape:connector-curvature="0"
         id="path4380"
         d="m -120.56634,1192.7342 c 0,0 -57.2975,56.5131 -47.18617,130.6864 10.11132,74.1734 57.2975,130.6865 57.2975,130.6865 l -60.66795,0 c 0,0 -50.55662,-38.8528 -47.18618,-141.2827 3.37045,-102.4299 43.81574,-123.6223 43.81574,-123.6223 z"
         style="fill:#000000;stroke:none" />
      <path
         style="fill:#000000;stroke:none"
         d="m 5.6061176,1185.7626 c 0,0 -73.9466906,59.256 -60.8972656,137.0293 13.049415,77.7734 73.946683,137.0293 73.946683,137.0293 l -78.296498,0 c 0,0 -65.247067,-40.7385 -60.897267,-148.1398 4.3498,-107.4013 56.547462,-129.6223 56.547462,-129.6223 z"
         id="path4382"
         inkscape:connector-curvature="0" />
    </g>
    <g
       id="g4296">
      <path
         style="font-size:medium;font-style:normal;font-variant:normal;font-weight:normal;font-stretch:normal;text-indent:0;text-align:start;text-decoration:none;line-height:normal;letter-spacing:normal;word-spacing:normal;text-transform:none;direction:ltr;block-progression:tb;writing-mode:lr-tb;text-anchor:start;baseline-shift:baseline;color:#000000;fill:#000000;fill-opacity:1;stroke:none;stroke-width:0.68708605000000000;marker:none;visibility:visible;display:inline;overflow:visible;enable-background:accumulate;font-family:Sans;-inkscape-font-specification:Sans"
         d="m 271.375,312.59375 -0.3125,0.625 c 0,0 2.81484,1.37802 6.8125,1.46875 4.0455,0.0918 6.5,-0.40625 6.5,-0.40625 l -0.125,-0.6875 c 0,0 -2.36297,0.49657 -6.34375,0.40625 -3.84494,-0.0873 -6.53125,-1.40625 -6.53125,-1.40625 z"
         id="path4388"
         inkscape:connector-curvature="0" />
      <path
         style="fill-rule:evenodd;stroke:#000000;stroke-width:0.27483442000000002pt;marker-start:none;marker-end:none"
         d="m 270.00468,312.29725 c 0.33785,-0.67915 1.16325,-0.95614 1.84239,-0.61829 0.67915,0.33786 0.95614,1.16325 0.61829,1.8424 -0.33786,0.67914 -1.16325,0.95614 -1.8424,0.61828 -0.67915,-0.33785 -0.95614,-1.16325 -0.61828,-1.84239 z"
         id="path4302"
         inkscape:connector-curvature="0" />
    </g>
    <path
       sodipodi:type="arc"
       style="fill:#000000;fill-opacity:1;stroke:none"
       id="path5048"
       sodipodi:cx="50"
       sodipodi:cy="1262.3622"
       sodipodi:rx="10"
       sodipodi:ry="14.285714"
       d="m 60,1262.3622 a 10,14.285714 0 1 1 -20,0 10,14.285714 0 1 1 20,0 z"
       transform="matrix(-0.13067346,-0.11495583,-0.09957461,0.13201282,401.43569,161.37136)" />
    <path
       transform="matrix(-0.13067346,-0.11495583,-0.09957461,0.13201282,396.27029,158.39253)"
       d="m 60,1262.3622 a 10,14.285714 0 1 1 -20,0 10,14.285714 0 1 1 20,0 z"
       sodipodi:ry="14.285714"
       sodipodi:rx="10"
       sodipodi:cy="1262.3622"
       sodipodi:cx="50"
       id="path5050"
       style="fill:#000000;fill-opacity:1;stroke:none"
       sodipodi:type="arc" />
    <path
       style="opacity:0.69958849000000001;fill:#ffffff;stroke:#000000;stroke-width:0.55686301000000005;stroke-linecap:butt;stroke-linejoin:miter;stroke-miterlimit:4;stroke-opacity:1;stroke-dasharray:none"
       d="m 289.36179,332.31271 c 0,0 6.41642,-7.31506 17.10793,-1.69068 10.69147,5.62436 15.44952,17.7833 10.80405,22.23659 -4.64548,4.45329 -16.90065,-0.47633 -20.46418,-4.48905 -3.56352,-4.01272 -7.4478,-16.05686 -7.4478,-16.05686 z"
       id="path5056"
       inkscape:connector-curvature="0" />
    <g
       id="g4304">
      <path
         style="font-size:medium;font-style:normal;font-variant:normal;font-weight:normal;font-stretch:normal;text-indent:0;text-align:start;text-decoration:none;line-height:normal;letter-spacing:normal;word-spacing:normal;text-transform:none;direction:ltr;block-progression:tb;writing-mode:lr-tb;text-anchor:start;baseline-shift:baseline;color:#000000;fill:#000000;fill-opacity:1;stroke:none;stroke-width:0.76130319000000002;marker:none;visibility:visible;display:inline;overflow:visible;enable-background:accumulate;font-family:Sans;-inkscape-font-specification:Sans"
         d="m 269.6875,303.5 -0.625,0.4375 c 0,0 2.7455,3.77271 7,5.90625 3.44454,1.72737 6.84375,2.28125 6.84375,2.28125 l 0.125,-0.75 c 0,0 -3.30102,-0.55184 -6.625,-2.21875 C 272.35671,307.12549 269.6875,303.5 269.6875,303.5 z"
         id="path5020"
         inkscape:connector-curvature="0" />
      <path
         style="fill-rule:evenodd;stroke:#000000;stroke-width:0.30452127000000001pt;marker-start:none;marker-end:none"
         d="m 268.4878,302.50979 c 0.67871,-0.49573 1.63189,-0.34722 2.12762,0.3315 0.49573,0.67871 0.34722,1.63189 -0.33149,2.12762 -0.67872,0.49573 -1.63189,0.34722 -2.12763,-0.33149 -0.49573,-0.67872 -0.34722,-1.63189 0.3315,-2.12763 z"
         id="path4310"
         inkscape:connector-curvature="0" />
    </g>
  </g>
  <g
     inkscape:groupmode="layer"
     id="layer3"
     inkscape:label="Worry">
    <path
       sodipodi:type="arc"
       style="fill:#ffffff;fill-opacity:1;stroke:#000000;stroke-width:0.40000001;stroke-miterlimit:4;stroke-opacity:1;stroke-dasharray:none;stroke-dashoffset:0"
       id="path4275"
       sodipodi:cx="260.89285"
       sodipodi:cy="327.63004"
       sodipodi:rx="1.6071428"
       sodipodi:ry="2.9464285"
       d="m 262.5,327.63004 a 1.6071428,2.9464285 0 1 1 -3.21429,0 1.6071428,2.9464285 0 1 1 3.21429,0 z"
       transform="matrix(2.1054142,-0.8523208,0.91001623,1.9719299,-583.14997,-92.361546)" />
  </g>
  <g
     inkscape:groupmode="layer"
     id="layer2"
     inkscape:label="Smile"
     style="display:none">
    <path
       style="fill:none;stroke:#000000;stroke-width:1px;stroke-linecap:butt;stroke-linejoin:miter;stroke-opacity:1"
       d="m 258.92857,325.57647 c 0,0 -0.35714,6.42857 3.92857,8.92857 4.28572,2.5 7.5,-5.35714 7.5,-5.35714"
       id="path4312"
       inkscape:connector-curvature="0" />
  </g>
</svg>
