<?xml version="1.0" encoding="UTF-8" standalone="no"?>
<!-- Created with Inkscape (http://www.inkscape.org/) -->

<svg
   xmlns:dc="http://purl.org/dc/elements/1.1/"
   xmlns:cc="http://creativecommons.org/ns#"
   xmlns:rdf="http://www.w3.org/1999/02/22-rdf-syntax-ns#"
   xmlns:svg="http://www.w3.org/2000/svg"
   xmlns="http://www.w3.org/2000/svg"
   xmlns:sodipodi="http://sodipodi.sourceforge.net/DTD/sodipodi-0.dtd"
   xmlns:inkscape="http://www.inkscape.org/namespaces/inkscape"
   width="744.09448819"
   height="1052.3622047"
   id="svg2"
   version="1.1"
   inkscape:version="0.48.2 r9819"
   sodipodi:docname="freebee.svg">
  <defs
     id="defs4">
    <marker
       inkscape:stockid="DotM"
       orient="auto"
       refY="0"
       refX="0"
       id="DotM"
       style="overflow:visible">
      <path
         inkscape:connector-curvature="0"
         id="path4458"
         d="m -2.5,-1 c 0,2.76 -2.24,5 -5,5 -2.76,0 -5,-2.24 -5,-5 0,-2.76 2.24,-5 5,-5 2.76,0 5,2.24 5,5 z"
         style="fill-rule:evenodd;stroke:#000000;stroke-width:1pt;marker-start:none;marker-end:none"
         transform="matrix(0.4,0,0,0.4,2.96,0.4)" />
    </marker>
    <clipPath
       clipPathUnits="userSpaceOnUse"
       id="clipPath5044">
      <path
         transform="translate(2.4560547e-6,-1.6235351e-6)"
         sodipodi:type="arc"
         style="fill:#ffffff;fill-opacity:1;stroke:none;display:inline"
         id="path5046"
         sodipodi:cx="-42.426407"
         sodipodi:cy="1319.0425"
         sodipodi:rx="191.92899"
         sodipodi:ry="117.1777"
         d="m 149.50258,1319.0425 a 191.92899,117.1777 0 1 1 -383.85797,0 191.92899,117.1777 0 1 1 383.85797,0 z" />
    </clipPath>
    <marker
       inkscape:stockid="DotM"
       orient="auto"
       refY="0"
       refX="0"
       id="marker4165"
       style="overflow:visible">
      <path
         inkscape:connector-curvature="0"
         id="path4167"
         d="m -2.5,-1 c 0,2.76 -2.24,5 -5,5 -2.76,0 -5,-2.24 -5,-5 0,-2.76 2.24,-5 5,-5 2.76,0 5,2.24 5,5 z"
         style="fill-rule:evenodd;stroke:#000000;stroke-width:1pt;marker-start:none;marker-end:none"
         transform="matrix(0.4,0,0,0.4,2.96,0.4)" />
    </marker>
  </defs>
  <sodipodi:namedview
     id="base"
     pagecolor="#ffffff"
     bordercolor="#666666"
     borderopacity="1.0"
     inkscape:pageopacity="0.0"
     inkscape:pageshadow="2"
     inkscape:zoom="1.4"
     inkscape:cx="234.84269"
     inkscape:cy="725.58229"
     inkscape:document-units="px"
     inkscape:current-layer="layer1"
     showgrid="false"
     inkscape:window-width="1100"
     inkscape:window-height="716"
     inkscape:window-x="0"
     inkscape:window-y="26"
     inkscape:window-maximized="0" />
  <metadata
     id="metadata7">
    <rdf:RDF>
      <cc:Work
         rdf:about="">
        <dc:format>image/svg+xml</dc:format>
        <dc:type
           rdf:resource="http://purl.org/dc/dcmitype/StillImage" />
        <dc:title></dc:title>
      </cc:Work>
    </rdf:RDF>
  </metadata>
  <g
     inkscape:label="Layer 1"
     inkscape:groupmode="layer"
     id="layer1">
    <g
       style="fill:#483737"
       transform="translate(14.5,14)"
       id="g3913" />
    <g
       style="fill:#483737"
       transform="translate(-3,11.857143)"
       id="g3927" />
    <g
       style="fill:#483737"
       transform="translate(-3,11.857143)"
       id="g3937" />
    <g
       style="fill:#483737"
       transform="translate(-10.5,1.5)"
       id="g3943" />
    <g
       style="fill:#483737"
       transform="matrix(0.98843027,0.15167595,-0.15167595,0.98843027,5.5264705,12.700962)"
       id="g3949" />
    <g
       style="fill:#483737"
       transform="translate(-34.428572,51.5)"
       id="g3957">
      <g
         style="fill:#483737"
         id="g3959"
         transform="translate(21.358586,-28.643218)" />
    </g>
    <g
       style="fill:#483737"
       transform="translate(-30.5,51.857143)"
       id="g3967">
      <g
         style="fill:#483737"
         id="g3969"
         transform="translate(49.642857,-35.714286)" />
      <path
         style="opacity:0.69120029;fill:#483737;fill-opacity:1;stroke:none"
         d="m 333.08354,254.23772 c -8.68339,-2.06133 -21.24538,-11.06614 -12.65324,-20.54889 2.73616,-5.56702 20.33177,-19.09897 16.95975,-4.73456 1.12184,6.89324 -9.66358,10.68952 -10.46722,12.68631 6.7931,1.93202 25.73262,1.25381 20.95518,11.2199 -4.77959,1.34115 -9.84723,2.01127 -14.79447,1.37724 z m -3.77274,-20.24756 c 4.87834,-2.24557 9.48183,-5.46771 0.8781,-3.26615 -3.7197,1.07752 -10.73521,7.474 -0.8781,3.26615 z m 7.22137,-3.6471 c -2.00612,1.32943 -16.28014,8.59246 -10.1809,2.43681 3.11382,-2.30791 6.44155,-3.42494 10.1809,-2.43681 z m -11.24583,11.01828 c 8.5855,0.0171 17.97388,-16.04138 9.26186,-19.75664 5.62944,-0.70679 -8.17983,3.15236 -9.54533,6.85981 -9.60414,5.87367 -9.82228,20.33128 2.20128,23.29286 8.46742,4.48832 15.11685,3.64506 22.44272,-0.056 0.23169,-11.04041 -18.97148,-6.86032 -20.5969,-10.33141 7.87738,1.24244 21.16108,-0.51192 24.11198,8.76792 0.34925,7.22938 -14.07859,4.50543 -19.77365,5.14677 -8.38186,-0.90469 -20.85887,-6.02643 -19.75469,-16.24423 3.415,-8.86036 12.24245,-17.87672 22.28955,-18.04013 11.75884,-0.99865 4.50647,17.88635 -2.97578,19.43571 -2.56121,1.64996 -4.8919,1.46198 -7.66104,0.92534 z m -24.34565,19.66006 c -10.76429,-1.84828 -21.99602,-14.16196 -10.62423,-23.12452 3.92287,-5.86133 19.54362,-15.25933 14.53621,-0.93963 1.46225,6.27831 -11.40649,9.93092 -9.37777,11.46131 6.84649,2.10892 24.10135,0.80518 20.67183,11.0334 -4.90602,1.47898 -10.09581,2.19081 -15.20604,1.56944 z m -4.35941,-19.93909 c 2.35382,-2.2077 12.01391,-4.99958 2.9045,-4.15395 -4.10938,0.23988 -11.22073,7.47437 -2.9045,4.15395 l 0,0 z m 7.73804,-4.02532 c -2.00612,1.32943 -16.28014,8.59246 -10.1809,2.43681 3.11382,-2.30791 6.44155,-3.42494 10.1809,-2.43681 z m -11.24583,11.01828 c 8.5855,0.0171 17.97388,-16.04138 9.26186,-19.75664 5.62944,-0.70679 -8.17983,3.15236 -9.54533,6.85981 -9.60414,5.87367 -9.82228,20.33128 2.20128,23.29286 8.46742,4.48832 15.11685,3.64506 22.44272,-0.056 0.23169,-11.04041 -18.97148,-6.86032 -20.5969,-10.33141 7.87738,1.24244 21.16108,-0.51192 24.11198,8.76792 0.34925,7.22938 -14.07859,4.50543 -19.77365,5.14677 -8.38186,-0.90469 -20.85887,-6.02643 -19.75469,-16.24423 3.415,-8.86036 12.24245,-17.87672 22.28955,-18.04013 11.75884,-0.99865 4.50647,17.88635 -2.97578,19.43571 -2.56121,1.64996 -4.8919,1.46198 -7.66104,0.92534 z m -25.57058,34.21196 c -2.16832,-13.90977 -7.95645,-27.17327 -8.29347,-41.35151 7.89464,-3.08737 22.83503,-1.11552 15.80169,10.8329 -0.67145,4.79073 -16.0323,1.9645 -4.9896,5.89004 10.54076,2.83413 19.61398,9.57199 30.43254,11.52847 -7.19683,1.94121 -16.99555,13.18993 -22.36872,6.04316 -2.03912,-5.96222 -12.42192,-6.12377 -4.24421,-0.0945 2.04128,2.81014 -4.60387,7.88024 -6.33823,7.15142 z m -12.81322,-43.03297 c 8.01092,0.81843 21.36536,-3.48303 25.81844,4.66775 1.26838,7.31586 -3.96943,13.97307 -11.17795,12.22921 11.07718,2.47053 20.54498,9.18318 31.42208,12.12674 9.03066,2.49424 -10.43982,7.9307 -14.05029,10.50866 -6.18485,7.7253 -19.03438,-9.35877 -14.59733,-7.97134 12.10185,1.58761 2.76325,15.23639 -4.987,14.75349 -6.6448,-1.65286 14.37409,-6.68619 5.22619,-13.4833 -3.323,-4.88918 7.72882,2.99593 8.3493,6.92067 2.47412,1.37329 -7.01957,0.37716 0.43166,-0.39942 5.35731,-2.8248 16.9681,-6.75183 18.12888,-9.9098 -11.41412,-1.94534 -20.84593,-9.54451 -32.14669,-12.06142 -4.17683,-3.28399 11.60324,-0.30825 9.06596,-8.46512 0.1113,-4.99066 -0.59154,-9.1171 -0.11416,-7.52985 -7.06137,-1.42851 -14.57022,0.66758 -21.36909,-1.38627 z m 9.4066,46.33958 c -1.536,-15.68462 -9.10154,-30.3302 -8.84421,-46.21422 8.24773,0.33037 2.32973,13.96398 6.66056,19.56296 1.26848,7.96253 7.96812,21.97697 4.38283,26.93379 -0.73305,-0.0942 -1.46617,-0.18834 -2.19918,-0.28253 z m 138.63011,24.97507 c -17.9078,-4.99445 -30.1073,-21.74145 -33.94741,-39.36065 -4.21248,-9.72749 2.54066,-21.72983 13.21295,-22.63864 13.3167,-2.92443 21.05454,13.35368 13.23446,23.35086 3.84283,5.45255 19.45174,6.44178 10.25508,16.30398 -4.56862,9.63239 24.34686,11.15454 12.17025,21.25377 -4.63328,2.36164 -9.96944,2.00336 -14.92533,1.09068 z m -6.75271,0.21827 c -9.6861,-4.29747 -17.51008,-11.30585 -23.52919,-19.89434 -4.74078,-8.75077 -8.56311,-18.38329 -8.93307,-28.43524 0.80537,-9.08958 9.57618,-14.99361 18.21889,-15.09181 9.3883,-1.93339 21.56739,4.10355 20.97828,14.79308 -2.94697,6.39203 -5.36837,13.95311 4.64329,14.15826 12.92128,3.36554 -7.44817,18.46946 8.11033,19.58904 9.48056,1.80373 13.38398,15.86058 0.7646,15.92116 -4.42621,2.68375 -19.82065,-0.48584 -18.50556,-1.41459 7.31851,-0.24421 19.41833,4.16299 23.16171,-4.63629 0.0255,-10.47316 -20.39439,-7.73977 -14.94937,-18.43291 10.45439,-11.4155 -13.48333,-8.84757 -9.88957,-18.1441 6.01402,-7.54251 0.88509,-18.65396 -8.10321,-20.6529 -8.3698,-0.99248 3.52896,-0.73312 -3.84648,-0.58347 -4.73991,0.33334 -14.85214,4.34122 -16.05671,12.0371 -1.57581,9.56992 2.9276,19.20849 6.85548,27.7099 5.00992,8.32981 11.7102,16.14544 20.84964,20.15236 6.17704,2.87335 4.10788,1.79493 0.23094,2.92475 z m -33.96158,24.40834 c -8.82398,-3.9752 -22.934,-5.54063 -25.10409,-16.67035 -2.40589,-11.52068 -18.49207,-10.52029 -19.57056,-23.13179 -4.97825,-9.65192 0.0134,-20.98329 10.51783,-23.52912 10.16058,-3.04509 22.79172,-4.76088 31.50658,2.65212 5.95713,9.64689 -17.073,14.80198 -8.17877,23.76214 9.73325,2.77096 22.62289,4.63579 15.41506,17.42525 8.13257,0.93183 26.00632,5.37099 14.47141,15.93569 -5.51752,3.05571 -12.80126,6.0824 -19.05746,3.55606 z m -43.15532,-28.64183 c -5.04633,-7.60958 -9.54985,-17.68876 -6.17984,-26.7365 8.44745,-12.04256 25.00179,-11.50723 38.17463,-11.11366 9.88554,-0.81959 19.67284,10.80223 8.32703,17.15993 -8.62685,4.44051 -7.04399,14.92732 3.34583,14.83897 9.94913,-2.09552 12.49165,8.16222 7.92518,14.65921 7.26606,2.22947 22.89642,1.53919 17.35593,13.87284 -6.65164,7.84276 -18.63177,8.72288 -28.23346,7.07391 -8.96842,-3.61014 -19.46886,-5.59416 -25.9129,-13.43689 7.33524,-0.92858 11.49021,8.48489 19.25085,9.14145 4.52222,1.45505 13.69622,4.82992 10.70514,4.25408 8.77261,1.15184 27.06945,-5.18303 19.1212,-16.44227 -6.07574,-3.20144 -22.74208,-0.45681 -13.84521,-11.89912 -0.32107,-10.74342 -16.40801,-3.35555 -19.97623,-12.18279 -1.15335,-9.5197 18.03121,-13.00681 9.08765,-22.64754 -3.62655,-2.92732 -14.4508,-4.24175 -10.69262,-3.90396 -11.06901,-0.0127 -25.33724,1.1564 -31.19114,12.0515 -2.09596,8.70671 1.7835,17.9311 6.72485,25.06357 -1.32885,0.0823 -2.6586,0.16556 -3.98689,0.24727 z m -67.98714,63.1941 c -6.92049,-8.1473 -10.19531,-19.90552 -14.68106,-29.88327 -3.42423,-10.35723 -7.94298,-21.33833 -5.77828,-32.3972 3.92178,-9.83845 15.81012,-11.73451 24.29435,-16.06175 11.67714,-3.77423 24.9548,-6.97624 36.87604,-2.54954 12.52665,6.12952 6.11648,21.00831 -4.75162,24.34096 -5.60721,1.79171 -10.96363,6.64767 -1.69721,4.02975 9.70426,-6.07832 20.91442,-10.38911 32.46638,-10.49635 11.86367,0.51757 17.95373,12.339 15.82995,23.07177 -1.91926,10.37047 -13.71482,14.32468 -21.6155,19.49171 -18.19169,9.53716 -38.05461,15.33185 -57.6961,21.08022 -1.1062,0.52019 -2.26632,-0.2181 -3.24695,-0.6263 z m 26.94693,-30.70423 c 7.04263,-8.21803 18.0739,-13.20627 28.97004,-12.00501 -4.13969,-2.2056 -18.28728,-0.67354 -24.60296,4.59561 -4.57672,1.32264 -14.10001,13.34587 -4.36708,7.4094 l 0,0 z m -19.4964,-27.32567 c -0.2326,-8.71777 19.06599,-8.04971 16.55644,-9.25424 -7.7212,-2.92461 -25.32967,6.03789 -19.17463,12.02636 1.94633,0.66927 1.75826,-1.70491 2.61819,-2.77212 z m 14.14433,28.95346 c 6.48495,-9.28885 18.14214,-15.28768 29.55815,-14.61259 5.72707,-0.14947 7.69677,1.39386 1.61863,1.12965 -2.78294,-0.94044 3.88523,-0.21178 -3.13133,-0.37116 -9.68165,0.76596 -18.72297,7.17651 -24.64565,14.03076 -1.13326,-0.0589 -2.26653,-0.11777 -3.3998,-0.17666 z m -19.43857,-26.21592 c 2.10889,-10.66747 14.14158,-13.3458 23.3677,-11.87055 1.68017,1.23844 -8.19829,0.11321 -5.97963,0.66189 -10.39541,-1.46549 -9.91956,12.47799 -17.38807,11.20866 z m -8.56455,53.64944 c -5.06368,-12.14352 -11.57091,-23.68676 -15.15476,-36.43479 -3.00395,-10.15404 -7.6429,-24.40954 2.68943,-31.97323 15.45251,-9.01476 33.08793,-14.78823 51.16204,-13.83847 9.46206,-0.76252 20.9878,5.24067 19.68435,16.10063 -3.71764,7.75407 -13.04026,14.5611 -21.31026,15.58835 0.17464,-3.9289 14.03578,-7.89982 20.53039,-9.93885 11.0342,-2.49099 25.58655,-3.93533 33.17493,6.32695 5.68736,11.07225 2.0879,25.63042 -10.16257,30.38051 -14.22476,9.79978 -30.9028,14.69763 -46.85638,20.81956 -10.26523,1.23323 -20.09062,8.91227 -30.58286,5.55661 -8.95693,-4.64185 0.32109,-5.43216 3.96582,-0.48034 5.87092,1.12451 -4.75535,0.56079 2.57743,0.36275 13.21795,-4.53205 26.9143,-7.45888 39.65446,-13.35647 13.27908,-4.49778 26.2173,-11.08437 36.61979,-20.54119 6.64507,-9.01191 3.81649,-26.25231 -8.55913,-28.99023 -5.91485,-1.05074 -1.38979,-1.17053 -2.89484,-1.12508 -12.45142,-0.0766 -24.54987,4.5854 -35.13395,10.82817 -4.04817,-0.20453 -8.99301,1.1638 -2.06806,-0.9861 7.35249,-4.18405 20.52684,-10.0786 16.12401,-20.54272 -1.15476,-8.42678 -17.29102,-9.58232 -16.39557,-9.41836 -16.7267,0.1388 -32.96131,5.92791 -47.00052,14.71455 -8.79314,8.41676 -3.77103,21.73789 -0.79289,31.7106 3.35994,12.34347 9.82629,23.40967 14.72924,35.12619 -1.33324,0.0368 -2.66753,0.0748 -4.0001,0.11096 z m -39.67251,-59.0613 c -9.22212,-16.68395 -18.60094,-33.97544 -21.67808,-53.00595 0.22489,-11.93431 12.15885,-19.01192 21.13668,-24.68874 15.32239,-9.04677 31.58998,-16.38602 47.96637,-23.28746 1.53897,8.15001 10.74102,19.55807 5.89698,26.067 -9.64603,3.92412 -20.34373,2.82523 -29.60552,8.20307 -10.10754,4.37626 -19.8555,11.58819 -23.27891,22.52256 7.63426,2.15625 6.4616,-11.26041 13.20879,-13.55039 6.36901,-4.45113 18.98858,-13.88349 24.42195,-10.0014 -1.68615,8.11104 9.80356,21.08518 1.29783,25.7722 -9.39438,2.49361 -21.55643,5.88814 -25.57516,15.53995 -0.9698,8.98186 9.27227,19.05779 0.26934,26.53403 -5.331,4.27481 -11.47584,9.7841 -14.06027,-0.10487 z m 51.1684,-102.14823 c 3.10928,8.41973 6.21376,16.78993 8.5416,25.41395 -2.5156,4.79906 -21.66633,7.77874 -19.91756,5.70171 9.06307,-1.05004 20.99535,-4.31717 12.98552,-14.94559 0.57596,-4.35018 -10.44247,-18.32154 -1.60956,-16.17007 z m -9.21044,31.08746 c -0.86847,10.21323 5.55882,19.53055 4.7796,29.44862 -8.49039,1.37737 -2.07445,-11.18084 -6.84733,-15.89857 -0.66279,-3.90205 -5.67137,-15.55722 2.06773,-13.55005 z m 5.33191,29.32206 c -10.72206,0.84963 -22.44389,5.31442 -29.22056,13.86548 -2.49878,9.37986 8.99651,18.85372 1.05469,27.32753 -3.15573,4.72374 -16.06692,9.93347 -17.65171,7.52502 9.42787,-1.9332 21.3071,-11.25161 14.692,-21.65566 -6.37839,-10.29117 0.72113,-20.39797 11.25879,-23.42982 6.25365,-2.70859 12.97635,-5.32663 19.86679,-3.63255 z m -47.09014,-2.24963 c 5.14618,-15.78019 21.67073,-23.06114 36.36778,-27.41783 13.18239,-1.89891 -6.76354,3.72871 -10.744,5.86848 -9.53477,4.36749 -18.373,11.36499 -21.6272,21.71126 -1.33219,-0.054 -2.66439,-0.10794 -3.99658,-0.16191 z m 0.0498,51.58929 c -10.83162,-19.20351 -22.52592,-38.84521 -26.05806,-60.92798 0.74729,-12.78627 13.35899,-19.90228 23.18597,-25.8443 16.15889,-9.26868 33.22886,-16.83077 50.42761,-23.93867 6.91123,-0.038 -0.27793,1.86102 -2.96051,3.14097 -20.22834,9.06877 -41.35268,17.45743 -58.67898,31.59147 -9.56438,7.0906 -9.10316,19.50518 -4.48557,29.34411 5.28976,16.44554 13.88598,31.55577 22.55344,46.41163 -1.32797,0.0743 -2.65593,0.14851 -3.9839,0.22277 z"
         id="path3975"
         inkscape:connector-curvature="0" />
    </g>
    <g
       id="g3874"
       transform="translate(13.214286,14.285714)">
      <path
         inkscape:connector-curvature="0"
         d="m 160.03845,354.50166 c -2.76428,-4.58408 -5.25265,-9.3328 -7.86232,-14.00753 -2.63355,-4.74165 -5.07263,-9.58235 -7.53419,-14.41417 -1.6561,-3.60331 -3.03717,-7.32487 -4.64638,-10.94905 -1.21562,-3.12631 -2.18706,-6.34056 -3.31241,-9.5015 -0.64016,-2.20972 -1.38294,-4.39203 -1.85852,-6.64571 -0.49383,-2.42126 -0.94291,-4.76716 -0.89365,-7.24951 0.26656,-3.08622 1.95145,-5.67812 3.54729,-8.23686 4.27924,-6.23704 10.67783,-10.27143 16.99198,-14.1762 14.32155,-8.59748 29.58539,-15.43141 44.86352,-22.11475 2.7534,-1.13855 5.5068,-2.27711 8.2602,-3.41567 0,0 3.61934,0.42881 3.61934,0.42881 l 0,0 c -2.75547,1.13578 -5.51094,2.27157 -8.26642,3.40735 -15.23364,6.65917 -30.46049,13.46226 -44.71394,22.0779 -6.23426,3.8701 -12.55347,7.86589 -16.803,14.01253 -1.54853,2.50062 -3.23271,5.01691 -3.51588,8.025 -0.0512,2.4521 0.4186,4.76528 0.90399,7.15789 0.47667,2.23405 1.20872,4.40135 1.84107,6.59383 1.11105,3.15334 2.05972,6.36387 3.29005,9.47236 1.59142,3.62221 2.98263,7.32961 4.62503,10.92887 2.44013,4.83304 4.87281,9.66717 7.50446,14.40006 2.61109,4.68023 5.09447,9.44421 7.94368,13.98358 0,0 -3.9839,0.22277 -3.9839,0.22277 z"
         id="path3775"
         style="opacity:0.69120029;fill:#ff2a2a;fill-opacity:1;stroke:none" />
      <path
         inkscape:connector-curvature="0"
         d="m 159.98861,302.91237 c 1.51023,-3.51503 3.17096,-6.91428 5.35738,-10.05909 3.04732,-3.86721 7.19729,-6.62696 11.3483,-9.17671 4.34328,-2.68695 9.02418,-4.66715 13.86024,-6.25848 2.5995,-0.80195 5.16969,-1.66849 7.71636,-2.62371 0,0 3.93874,0.48001 3.93874,0.48001 l 0,0 c -2.56016,0.95588 -5.13547,1.8418 -7.75121,2.6363 -4.8334,1.56598 -9.52566,3.49092 -13.86708,6.16582 -4.12466,2.50261 -8.23675,5.23213 -11.30289,9.01769 -2.18716,3.10829 -3.86386,6.46496 -5.30326,9.98008 0,0 -3.99658,-0.16191 -3.99658,-0.16191 z"
         id="path3777"
         style="opacity:0.69120029;fill:#ff2a2a;fill-opacity:1;stroke:none" />
      <path
         sodipodi:nodetypes="ccccccccccccccccccccccccscccccc"
         inkscape:connector-curvature="0"
         d="m 207.07875,305.162 c -2.53195,0.28425 -5.14286,0.30732 -7.63039,0.89625 -1.34503,0.37864 -2.51203,1.13329 -3.83805,1.56554 -1.50503,0.44769 -3.00515,0.94037 -4.42592,1.61503 -1.83102,0.83842 -3.62034,1.7212 -5.2782,2.87445 -1.39478,0.98288 -2.95296,1.56683 -4.30521,2.61321 -1.20949,0.63816 -2.00276,1.70346 -2.82982,2.75062 -0.78101,1.02291 -1.22519,2.01249 -1.28514,3.2968 -0.14261,1.89531 0.49726,3.6787 0.82121,5.51756 0.12321,2.05782 0.5654,3.95305 1.64028,5.72095 1.06764,1.52236 1.47408,3.27251 1.70519,5.08341 0.3442,2.09788 0.0844,4.01827 -0.57561,6.01136 -1.10625,2.43163 -3.01806,4.22778 -4.94076,6.00443 -1.51544,1.59062 -9.92876,4.7738 -11.93449,5.63684 l -3.96727,-0.47046 0,0 c 2.00458,-0.7874 10.42948,-3.92925 11.92799,-5.49471 1.88053,-1.74104 3.80389,-3.4336 4.92306,-5.80466 0.65094,-1.93713 0.918,-3.78645 0.56808,-5.83119 -0.23285,-1.76389 -0.66069,-3.44239 -1.70053,-4.92306 -1.03682,-1.8326 -1.51367,-3.76126 -1.64066,-5.86145 -0.3459,-1.86414 -0.96547,-3.68174 -0.82953,-5.60588 0.0553,-1.45886 0.43376,-2.37167 1.28258,-3.54185 0.80257,-1.08233 1.62292,-2.21846 2.84471,-2.85374 0.4078,-0.31565 0.77879,-0.68083 1.20867,-0.96568 0.98044,-0.64966 2.2307,-0.82375 3.10785,-1.66118 1.63774,-1.20906 3.43957,-2.10402 5.28517,-2.94004 1.41381,-0.71929 2.91355,-1.2301 4.42506,-1.68108 1.36273,-0.37891 2.51004,-1.12422 3.84168,-1.5773 2.45638,-0.73995 5.1313,-0.58306 7.65148,-0.99957 z"
         id="path3787"
         style="opacity:0.69120029;fill:#ff2a2a;fill-opacity:1;stroke:none" />
      <path
         sodipodi:nodetypes="ccccccccccccccccc"
         inkscape:connector-curvature="0"
         d="m 201.74684,275.83994 c 0.68594,2.18653 -0.53598,5.98735 0.32406,8.1153 0.47252,1.31229 0.97307,2.61558 1.35684,3.95754 0.26402,1.8323 0.7556,3.5652 1.47588,5.26517 0.5267,1.652 1.04445,3.30508 1.53507,4.97052 0.32974,1.21155 -0.98732,3.75772 -0.67979,4.98203 0.31015,0.70828 0.66432,1.38873 0.76754,2.15806 l -4.02015,0.0559 0,0 c -0.11005,-0.74897 -0.50766,-1.4018 -0.75969,-2.1112 -0.32859,-1.20382 0.97697,-3.75232 0.68989,-4.96895 -0.49571,-1.64865 -0.98245,-3.29749 -1.53053,-4.92695 -0.71722,-1.71508 -1.18708,-3.47422 -1.48194,-5.31082 -0.3949,-1.32569 -0.89153,-2.6186 -1.35386,-3.92165 -0.81999,-2.15446 0.39462,-5.96399 -0.32342,-8.15355 l 4.0001,-0.11135 z"
         id="path3793"
         style="opacity:0.69120029;fill:#ff2a2a;fill-opacity:1;stroke:none" />
      <path
         sodipodi:nodetypes="ccsccccccccccccccccc"
         inkscape:connector-curvature="0"
         d="m 210.95728,244.75248 c 1.23743,3.14953 3.19639,8.48722 4.25648,11.70444 0.42278,1.12752 0.43299,2.35936 0.8686,3.48208 0.29078,0.74943 0.79015,1.45606 1.14744,2.17772 0.50845,1.55588 0.93708,3.13938 1.37024,4.72241 0.25759,1.81726 1.56695,2.76836 0.47778,4.51282 -2.07417,1.5774 -4.73566,2.16495 -7.17898,2.96481 -2.11868,0.7668 -4.34291,1.11923 -6.51588,1.68494 -1.23854,0.2388 -2.45917,0.55833 -3.68688,0.846 l -3.94427,-0.53283 0,0 c 1.22408,-0.28128 2.43107,-0.63061 3.67064,-0.83816 2.17658,-0.55849 4.39222,-0.9334 6.52617,-1.65635 2.40217,-0.80954 4.95224,-1.38561 7.12813,-2.72451 0.13928,-0.15094 0.33589,-0.26449 0.41785,-0.45281 0.49427,-1.13565 -0.98791,-2.53209 -0.89769,-3.69586 -0.435,-1.55586 -0.83062,-3.12584 -1.36832,-4.64481 -0.93176,-1.84475 -1.68952,-3.64238 -1.98906,-5.71906 -1.05462,-3.20889 -2.98122,-8.55479 -4.27883,-11.66892 z"
         id="path3795"
         style="opacity:0.69120029;fill:#ff2a2a;fill-opacity:1;stroke:none" />
      <path
         inkscape:connector-curvature="0"
         id="path3864"
         d="m 159.78888,346.90071 c -9.47434,-16.83271 -14.45647,-27.49968 -18.2904,-39.16066 -3.32327,-10.10776 -4.10644,-15.12889 -2.8952,-18.56191 1.89915,-5.38279 7.17982,-11.21625 14.65883,-16.19339 9.99749,-6.65313 23.25471,-13.56197 42.5,-22.14835 6.03129,-2.69089 11.21698,-4.91784 11.45174,-4.91784 0.18142,0 2.18693,5.41012 3.37598,9.10715 0.63177,1.96428 1.52371,4.53571 1.9821,5.71428 0.45839,1.17857 1.09532,3.10715 1.41538,4.28572 0.32007,1.17857 0.84053,2.84824 1.15658,3.71038 0.5713,1.55844 0.56928,1.57213 -0.34764,2.36084 -0.50725,0.43631 -2.50637,1.29633 -4.44249,1.91115 -6.01593,1.91037 -7.86902,2.27974 -10.12414,2.018 -1.9068,-0.22131 -2.54302,-0.0737 -8.44342,1.95877 -3.50968,1.20896 -8.14909,3.0655 -10.3098,4.12566 -7.69869,3.77735 -14.18504,8.8003 -17.0469,13.20091 -1.40624,2.16233 -4.2031,7.75178 -4.2031,8.39977 0,0.19263 0.86241,0.35023 1.91647,0.35023 l 1.91647,0 1.14856,-2.58928 c 3.57481,-8.05891 8.81824,-13.08983 19.16278,-18.38614 3.69419,-1.89139 12.43647,-5.22385 13.11274,-4.99843 0.24582,0.0819 0.39728,1.38507 0.40664,3.49864 0.0111,2.51714 0.21558,3.95457 0.80918,5.6895 0.43685,1.27678 1.46686,4.55106 2.28892,7.27617 1.43369,4.75271 1.4784,5.04396 1.09637,7.14286 -0.21904,1.20346 -0.36512,2.58884 -0.32462,3.07861 0.0707,0.85556 -0.0314,0.901 -2.60494,1.15825 -5.26183,0.52599 -15.41011,4.99047 -21.67696,9.53623 -2.11232,1.5322 -3.67345,3.93655 -3.8982,6.00372 -0.23409,2.15323 1.32744,10.02568 2.3235,11.71388 1.78145,3.01932 2.24761,6.81683 1.24941,10.17814 -0.47307,1.59299 -1.05246,2.40712 -3.30357,4.64201 -2.42389,2.40642 -3.16106,2.89774 -6.57633,4.38303 -2.11554,0.92005 -3.88467,1.67281 -3.9314,1.67281 -0.0467,0 -1.64537,-2.77232 -3.55254,-6.16071 z"
         style="opacity:0.64879993;fill:#45ffdb;fill-opacity:1;stroke:none" />
    </g>
    <g
       id="g3899"
       transform="translate(-5,7.8571429)">
      <path
         inkscape:connector-curvature="0"
         d="m 216.96139,408.10487 c -1.83859,-5.43402 -4.71264,-10.44132 -7.15021,-15.61791 -2.50089,-5.01941 -4.49904,-10.21509 -6.12888,-15.56887 -1.24648,-3.50028 -2.56362,-6.97645 -3.57506,-10.55389 -0.5808,-2.83318 -1.00889,-5.69098 -1.52827,-8.53729 -0.37439,-2.39985 -0.60816,-4.84478 -0.42468,-7.27067 0.26662,-2.45951 1.21176,-4.81049 2.50279,-6.90467 1.30845,-2.14025 3.27498,-3.68671 5.38867,-4.97402 3.25505,-1.64635 6.58747,-3.13587 9.88112,-4.70374 4.16186,-2.04336 8.53793,-3.63854 12.93762,-5.08719 4.48834,-1.2332 9.12657,-1.84774 13.73166,-2.48171 4.95508,-0.68575 9.94586,-0.60366 14.93184,-0.51512 3.21789,0.30566 6.48412,0.78504 9.50956,1.95959 2.33751,1.11035 4.37883,2.76964 5.9567,4.81177 1.12763,1.92567 1.84711,4.06857 2.32267,6.24172 0.47607,2.12149 -0.0221,4.07064 -1.1577,5.87272 -1.47842,2.30949 -3.59485,4.12535 -5.76801,5.75791 -2.5757,1.94857 -5.2568,3.73412 -8.07482,5.31123 -0.79389,0.17763 -3.98993,2.27683 -4.61358,2.14978 -1.13044,-0.23029 -2.21636,-0.64141 -3.32455,-0.96211 2.47317,-1.85952 5.37675,-3.05372 8.16389,-4.36457 3.69194,-1.86217 7.59406,-3.17716 11.55575,-4.3227 3.26577,-1.07204 6.61508,-1.78255 10.0278,-2.15555 4.01838,-0.38273 8.05485,-0.22258 12.08118,-0.12051 2.87,0.43153 5.46967,1.59403 8.03867,2.88133 2.24262,1.20785 4.13695,2.82918 5.49196,4.98506 1.1106,2.05224 1.74418,4.21923 2.07811,6.51445 0.28102,2.67854 0.27878,5.37513 0.29125,8.06507 0.14525,2.45595 -0.59703,4.74442 -1.88566,6.80433 -1.573,2.28741 -3.76714,3.97348 -5.79456,5.81825 -1.99995,1.64478 -4.31176,2.82964 -6.52194,4.1561 -2.58532,1.80856 -5.3683,3.29262 -8.11173,4.84038 -3.26568,1.89028 -6.71425,3.43817 -10.16699,4.95113 -3.28422,1.13063 -6.57288,2.18443 -9.74175,3.61789 -3.1504,1.33564 -6.38335,2.45841 -9.5828,3.67093 -2.451,1.13031 -5.02259,1.92834 -7.58288,2.76154 -2.02021,0.51329 -4.05271,1.00249 -6.09617,1.42123 -2.10354,0.47708 -4.05671,1.39807 -6.12414,1.99219 -2.25248,0.71545 -4.51869,1.39145 -6.75808,2.14736 -3.23701,1.04604 -6.97422,1.12155 -10.28962,0.54618 -1.76434,-0.6907 -3.51827,-1.52024 -4.8491,-2.8912 -0.80927,-0.9719 -0.4339,-0.45973 -1.12374,-1.53824 0,0 3.992,-0.23263 3.992,-0.23263 l 0,0 c 0.68925,1.01677 0.31539,0.53255 1.12085,1.45325 1.34919,1.25871 3.0581,2.10129 4.81445,2.64212 1.97164,0.24309 1.39141,0.12752 -1.89867,0.14155 -0.34681,10e-4 0.69383,0.004 1.04043,-0.008 0.64236,-0.0228 1.50646,-0.0801 2.13218,-0.23479 0.37687,-0.0931 0.73609,-0.247 1.10413,-0.3705 2.22908,-0.7897 4.51453,-1.41586 6.75426,-2.17352 2.09007,-0.55273 4.03811,-1.48249 6.13295,-2.02143 2.04654,-0.3833 4.05587,-0.9341 6.09003,-1.37446 2.56837,-0.82046 5.15432,-1.59662 7.60484,-2.73935 3.19924,-1.1995 6.41464,-2.35098 9.5766,-3.6442 3.16121,-1.46369 6.44025,-2.55207 9.75043,-3.62463 3.45374,-1.48756 6.89488,-3.03515 10.15738,-4.91064 2.7368,-1.54714 5.53005,-3.00608 8.09811,-4.82986 2.18635,-1.33269 4.48203,-2.49804 6.50765,-4.07786 1.99059,-1.84547 4.21015,-3.46123 5.78794,-5.7161 1.29801,-1.96636 2.01142,-4.19945 1.88166,-6.57544 -0.008,-2.67092 -0.007,-5.34967 -0.29614,-8.00826 -0.33413,-2.23757 -0.96818,-4.35511 -2.074,-6.34504 -1.36439,-2.07477 -3.26398,-3.62384 -5.46452,-4.77142 -2.56158,-1.25106 -5.15552,-2.3848 -8.01833,-2.7339 0.84754,-0.0345 1.69699,-0.0367 2.54261,-0.10336 0.43708,-0.0344 -0.87689,0.003 -1.31532,0.007 -1.81583,0.0163 -3.63256,0.0613 -5.44312,0.20938 -3.41503,0.33453 -6.77422,1.0007 -10.03627,2.08453 -3.96126,1.11368 -7.86563,2.40117 -11.54966,4.25995 -2.76383,1.28327 -5.6245,2.49082 -8.1049,4.27431 -9.92622,0.22226 -5.56985,0.51455 -4.14929,-0.0377 1.42523,-0.55403 2.74243,-1.33162 4.14683,-1.93029 2.83013,-1.53876 5.50615,-3.31666 8.07729,-5.25722 2.1561,-1.58261 4.25637,-3.36069 5.73127,-5.6185 1.13418,-1.69341 1.61755,-3.52619 1.15287,-5.55605 -0.47064,-2.11347 -1.16744,-4.21046 -2.30992,-6.06071 -1.6055,-1.95979 -3.58875,-3.58356 -5.9271,-4.59811 -3.03501,-1.09297 -6.27273,-1.58208 -9.47874,-1.8424 0.73705,-0.0296 1.47801,-0.007 2.21116,-0.0887 0.59453,-0.0659 -1.19611,0.0239 -1.79399,0.0425 -2.51201,0.0778 -5.02346,0.23138 -7.51981,0.52815 -4.60639,0.61332 -9.23963,1.2394 -13.74097,2.40857 -4.39449,1.42018 -8.75952,3.01861 -12.91613,5.03827 -3.2762,1.56625 -6.58155,3.07163 -9.8404,4.67326 -2.101,1.19689 -4.06441,2.71789 -5.36946,4.78605 -1.30792,2.01205 -2.2171,4.31877 -2.49657,6.71123 -0.19741,2.39068 0.0612,4.80196 0.4232,7.16773 0.51011,2.83397 0.91575,5.68224 1.50446,8.4997 1.00787,3.57489 2.3384,7.04187 3.55902,10.5473 1.59533,5.33796 3.57416,10.51611 6.06294,15.51313 2.46656,5.20276 5.3398,10.23985 7.26955,15.67795 0,0 -4.0001,0.11136 -4.0001,0.11136 z"
         id="path3815"
         style="opacity:0.69120017;fill:#ff2a2a;fill-opacity:1;stroke:none" />
      <path
         inkscape:connector-curvature="0"
         d="m 225.52594,354.45543 c 0.88794,-2.56153 2.13688,-5.00509 3.69691,-7.22181 1.31515,-1.61788 3.16493,-2.43387 5.04117,-3.2072 2.06433,-0.66468 4.15433,-1.25814 6.29059,-1.64209 3.14298,-0.0677 6.41943,-0.32094 9.50416,0.44106 0,0 -3.96058,0.5386 -3.96058,0.5386 l 0,0 c -1.31625,-0.26083 -4.50332,-0.26495 -3.19439,-0.37569 0.57924,-0.049 4.80364,-0.0601 1.59939,-0.0473 -2.13465,0.3503 -4.19999,0.95019 -6.27216,1.55923 -1.84158,0.72088 -3.67357,1.47429 -5.02443,2.9826 -1.58484,2.1442 -2.81971,4.5624 -3.68056,7.08396 0,0 -4.0001,-0.11135 -4.0001,-0.11135 z"
         id="path3821"
         style="opacity:0.69120017;fill:#ff2a2a;fill-opacity:1;stroke:none" />
      <path
         inkscape:connector-curvature="0"
         d="m 244.96451,380.67135 c 1.47062,-2.28028 3.06701,-4.43857 5.24436,-6.07563 1.54137,-1.06372 3.15624,-2.01504 4.68361,-3.10168 1.69446,-1.31904 3.60173,-2.16199 5.58832,-2.91951 1.78696,-0.67087 3.45471,-1.5445 5.31662,-2.00403 2.15046,-0.40686 4.35326,-0.40069 6.53422,-0.42541 2.94476,-0.28076 5.78491,0.15677 8.65258,0.64415 0,0 -3.96202,0.55742 -3.96202,0.55742 l 0,0 c -0.29364,-0.0528 -0.5877,-0.10317 -0.88091,-0.15825 -0.29124,-0.0547 -0.58105,-0.11684 -0.87238,-0.17111 -3.52189,-0.65611 5.03927,-0.10615 1.00508,-0.25167 -2.17231,0.0169 -4.36095,0.007 -6.51246,0.34124 -1.88158,0.40026 -3.54094,1.24405 -5.31593,1.94683 -1.96163,0.76498 -3.89972,1.48544 -5.57407,2.81722 -1.51187,1.11265 -3.1254,2.06212 -4.6852,3.09967 -2.19439,1.55771 -3.79883,3.63746 -5.22974,5.9082 0,0 -3.99208,-0.20744 -3.99208,-0.20744 z"
         id="path3823"
         style="opacity:0.69120017;fill:#ff2a2a;fill-opacity:1;stroke:none" />
      <path
         inkscape:connector-curvature="0"
         id="path3858"
         d="m 223.36965,409.74779 c -2.29223,-1.24251 -2.42447,-1.38918 -3.13057,-3.47208 -0.36625,-1.08036 -2.56296,-5.90179 -4.88158,-10.71429 -2.31862,-4.8125 -5.09609,-11.24107 -6.17215,-14.28571 -5.42357,-15.34564 -6.82535,-21.20283 -6.84233,-28.58995 -0.009,-4.05907 0.0122,-4.1696 1.33548,-6.84701 1.95155,-3.9487 3.84994,-5.51386 10.61933,-8.75528 13.96834,-6.68855 19.38407,-8.40001 31.42857,-9.9319 7.48143,-0.95154 14.34773,-0.31391 18.3543,1.70446 2.08445,1.05007 4.86626,3.82025 5.65762,5.63396 1.07392,2.46133 1.69505,4.6919 1.69065,6.07143 -0.013,4.09952 -5.33537,9.3415 -13.61754,13.41194 -2.29073,1.12583 -4.59951,2.42036 -5.13063,2.87674 l -0.96567,0.82977 1.61054,-0.0323 c 0.8858,-0.0178 1.78648,0.0764 2.00152,0.20931 0.54775,0.33853 3.19297,-0.89624 7.21526,-3.36803 3.74397,-2.30075 5.62125,-3.13223 10.50538,-4.653 7.85762,-2.44663 13.51959,-3.47786 17.05042,-3.10546 3.84052,0.40507 9.18785,2.81397 11.71971,5.27958 3.10922,3.02785 4.43244,7.90741 4.2073,15.51503 -0.10821,3.65653 -0.25478,4.54887 -0.9973,6.07217 -1.47426,3.02446 -5.62289,6.67041 -12.39465,10.89279 -6.39929,3.99015 -16.86695,9.46444 -20.1212,10.52283 -1.08035,0.35137 -6.86607,2.53219 -12.85714,4.84627 -6.12413,2.36546 -12.61272,4.62377 -14.82143,5.15848 -2.16071,0.52309 -7.14976,1.98447 -11.08677,3.2475 -3.93702,1.26303 -7.55309,2.29188 -8.03572,2.28635 -0.48263,-0.006 -1.53626,-0.36714 -2.3414,-0.80357 l 0,0 z m 26.94693,-30.70423 c 0.76914,-1.03125 1.85903,-2.29975 2.42198,-2.81889 2.25607,-2.08051 8.82237,-6.015 12.52417,-7.50442 3.83028,-1.54113 3.88812,-1.55194 8.49938,-1.58867 5.7771,-0.046 6.77285,-0.0949 6.54622,-0.32155 -0.53251,-0.53252 -6.02585,-0.83066 -10.20206,-0.5537 -4.26192,0.28264 -4.96034,0.43368 -8.47087,1.83196 -6.3325,2.52227 -12.6791,7.0232 -15.65919,11.10529 -1.07812,1.4768 -0.92946,1.65253 1.43535,1.69679 1.41369,0.0265 1.59282,-0.0874 2.90502,-1.84681 z m -19.4964,-27.32567 c 1.75947,-3.67071 3.04041,-5.15154 5.43818,-6.28683 2.47158,-1.17024 7.52432,-2.50669 8.3211,-2.20094 0.32679,0.1254 1.64264,0.11527 2.92412,-0.0225 3.43528,-0.36938 1.76222,-0.805 -3.20826,-0.83536 -6.44181,-0.0393 -12.55219,1.94266 -14.94738,4.84844 -1.07578,1.30511 -3.62154,6.14854 -3.62154,6.89015 0,0.2195 0.7927,0.37916 1.88252,0.37916 l 1.88252,0 1.32874,-2.7721 z"
         style="opacity:0.82000001;fill:#ffe900;fill-opacity:1;stroke:none" />
    </g>
    <g
       id="g3905"
       transform="translate(-5,7.8571429)">
      <path
         inkscape:connector-curvature="0"
         d="m 291.35679,346.55369 c -1.9112,-2.65748 -3.38135,-5.5326 -4.72442,-8.50287 -0.9962,-2.13005 -1.37941,-4.45304 -1.95088,-6.71484 -0.51353,-1.9965 -0.67155,-4.05147 -0.76288,-6.10296 -0.18125,-1.92624 0.46466,-3.69968 1.25834,-5.41583 1.12326,-1.96298 2.77292,-3.50205 4.50166,-4.92578 2.18218,-1.79606 4.87734,-2.78696 7.46723,-3.8403 2.51597,-0.94264 5.19193,-1.36924 7.82836,-1.83948 2.68288,-0.43507 5.39986,-0.5511 8.1123,-0.61437 3.91421,0.0195 7.8397,-0.30559 11.72329,0.2884 2.15049,0.51894 4.20187,1.34244 6.31467,1.97974 1.65447,0.60038 3.09572,1.48162 4.34133,2.71602 1.12256,1.34536 1.64992,2.94313 1.51211,4.67491 -0.0467,1.56761 -0.65329,2.79421 -1.44356,4.10611 -1.17231,1.29726 -2.67876,2.21578 -3.85573,3.50102 -1.15105,1.20324 -2.4455,2.26267 -3.66467,3.39738 -1.15401,1.19819 -1.97627,2.46573 -2.41002,4.07099 -0.41944,1.92984 -0.47361,2.88144 1.09374,4.14086 1.89826,1.06054 3.95084,1.83268 5.98583,2.59159 1.51366,0.65805 3.14039,0.76673 4.76545,0.83087 2.0237,-0.13101 3.87888,0.36172 5.65948,1.29847 1.56355,1.08441 2.0108,2.82735 2.27,4.60878 0.25639,1.55352 -0.44217,2.91517 -1.20601,4.21112 -0.66907,1.1456 -1.29877,2.30606 -1.59118,3.6068 0.14283,1.17605 1.87546,1.53903 2.84134,1.83969 1.90771,0.54214 3.90643,0.41764 5.84375,0.74204 1.96174,0.50835 4.019,0.47057 5.981,0.93031 1.65935,0.63148 2.5201,1.83857 3.29409,3.36435 0.7577,1.83319 1.11561,3.76626 0.62857,5.70338 -0.55809,1.38449 -1.0529,2.75578 -2.08244,3.85427 -1.64473,1.25886 -3.48288,2.19968 -5.3423,3.09108 -1.98363,0.85513 -4.00322,1.64385 -6.0981,2.18035 -2.49249,0.52972 -5.05993,0.51716 -7.59656,0.55846 -3.83071,0.26772 -7.11925,0.0847 -10.51583,-1.53893 -1.64216,-0.79961 -3.40917,-1.2067 -5.15608,-1.7068 -1.93895,-0.79885 -3.94308,-1.47666 -5.83031,-2.3904 -1.95623,-0.90297 -3.99008,-1.68499 -5.87789,-2.73223 -1.72812,-1.06454 -3.29187,-2.35503 -4.7452,-3.76734 -0.72691,-0.50804 -1.26064,-1.16327 -1.76608,-1.87705 0,0 3.99633,-0.25382 3.99633,-0.25382 l 0,0 c 0.51678,0.67479 1.07352,1.28982 1.75561,1.80762 1.46138,1.36651 2.99008,2.65747 4.72935,3.66155 1.91103,0.99922 3.91863,1.81502 5.87936,2.70905 1.90469,0.85699 3.86141,1.61238 5.82331,2.32827 1.75248,0.50847 3.52285,0.93994 5.16345,1.76469 0.95174,0.40989 1.9262,0.75359 2.92735,1.02724 0.36224,0.099 1.46375,0.17779 1.09677,0.25746 -0.89492,0.19429 -1.83167,0.0403 -2.74546,0.10047 -0.44235,0.0291 0.88662,-0.005 1.32992,-0.007 2.5268,-0.0319 5.07953,-0.0129 7.57301,-0.47106 2.09899,-0.48863 4.10116,-1.27891 6.09054,-2.09696 1.83192,-0.88877 3.64215,-1.78405 5.31658,-2.95788 1.06677,-1.00186 1.48588,-2.326 2.07589,-3.64454 0.51356,-1.82849 0.10806,-3.68272 -0.62707,-5.40731 -0.76839,-1.43177 -1.63231,-2.53596 -3.25991,-3.01298 -1.9778,-0.36854 -4.00501,-0.45575 -5.97263,-0.90736 -1.95485,-0.25417 -3.96001,-0.20854 -5.85987,-0.81011 -1.20702,-0.42879 -2.85284,-0.90582 -2.8861,-2.42395 0.28254,-1.35084 0.92044,-2.54862 1.60826,-3.73719 0.73708,-1.20904 1.44042,-2.46853 1.19932,-3.93627 -0.25248,-1.68206 -0.6818,-3.29223 -2.2373,-4.22529 -1.80376,-0.84725 -3.6434,-1.23888 -5.64295,-1.13335 -1.63822,-0.0906 -3.25693,-0.27903 -4.77343,-0.95637 -2.05055,-0.78414 -4.15964,-1.53702 -6.01254,-2.72804 -1.55244,-1.40594 -1.52479,-2.59909 -1.10463,-4.58906 0.43098,-1.68735 1.23692,-3.01663 2.42185,-4.29237 1.18985,-1.15473 2.49508,-2.18783 3.6629,-3.36206 1.11908,-1.31716 2.58531,-2.25321 3.84587,-3.43126 0.7777,-1.26337 1.39817,-2.39443 1.43459,-3.92139 0.15031,-1.62001 -0.39744,-3.10402 -1.49284,-4.31849 -1.24671,-1.161 -2.69369,-1.98448 -4.31163,-2.5319 -2.09338,-0.66322 -4.14692,-1.46207 -6.30164,-1.91904 -1.27938,-0.17743 -5.32541,-0.26907 0.29178,-0.26345 0.44776,4.5e-4 -0.89551,5.5e-4 -1.34326,0.002 -1.42607,0.004 -1.36109,0.006 -2.78911,0.0208 -2.709,0.0523 -5.42267,0.14869 -8.10618,0.55412 -2.62959,0.45157 -5.29117,0.88796 -7.81827,1.75698 -2.57231,1.02157 -5.25859,1.99111 -7.44815,3.72314 -1.71636,1.36114 -3.32074,2.86893 -4.47789,4.74634 -0.78429,1.64937 -1.42968,3.36133 -1.25583,5.22279 0.0908,2.02473 0.24857,4.0525 0.7592,6.02212 0.56401,2.23904 0.94128,4.53851 1.9319,6.64525 1.32644,2.95551 2.79893,5.80971 4.73804,8.42353 0,0 -3.98689,0.24761 -3.98689,0.24761 z"
         id="path3825"
         style="opacity:0.69120017;fill:#ff2a2a;fill-opacity:1;stroke:none" />
      <path
         inkscape:connector-curvature="0"
         id="path3860"
         d="m 334.51211,375.19552 c -1.66964,-0.60898 -3.59821,-1.27593 -4.28571,-1.48209 -1.75567,-0.52649 -7.51017,-2.85161 -10.83862,-4.37937 -3.27351,-1.50256 -5.07501,-2.70825 -7.59778,-5.08498 -1.66304,-1.56678 -1.84901,-1.90186 -2.04664,-3.68766 -0.62468,-5.64458 -3.39643,-9.55932 -8.53944,-12.06084 -1.62837,-0.79203 -3.63005,-1.6203 -4.44818,-1.84059 -1.26578,-0.34084 -1.67108,-0.70544 -2.71904,-2.44599 -3.74468,-6.21947 -5.50458,-11.47872 -5.84611,-17.47039 -0.27961,-4.90547 0.39923,-6.65419 3.84492,-9.90468 4.57742,-4.31811 10.69145,-6.49022 20.75164,-7.37235 5.12478,-0.44937 7.20503,-0.27073 11.36527,0.97602 7.78611,2.33335 10.0497,5.14641 8.16816,10.15092 -0.19126,0.50872 -2.33194,2.79568 -4.75707,5.08212 -4.45575,4.20095 -5.72288,5.96496 -6.14258,8.55127 -0.12841,0.79128 0.014,1.63506 0.40277,2.38691 1.08364,2.09553 8.53897,4.99426 12.89265,5.01283 2.22607,0.009 4.68426,0.98934 5.55705,2.21506 1.40337,1.97085 1.31131,3.82522 -0.36948,7.44278 -1.63876,3.52711 -1.60748,4.18365 0.24378,5.11597 1.33077,0.6702 2.0637,0.81673 7.40013,1.47953 5.58671,0.69388 6.56613,0.97676 7.78436,2.24832 1.09102,1.13878 2.03707,3.58618 2.03707,5.26983 0,1.70452 -1.16784,4.16611 -2.51382,5.29867 -3.00612,2.52949 -9.6275,5.02036 -14.29053,5.37591 -2.79025,0.21276 -3.24531,0.14681 -6.0528,-0.8772 l 0,0 z"
         style="opacity:0.74;fill:#ffca42;fill-opacity:1;stroke:none" />
    </g>
    <g
       id="g3909"
       transform="translate(-12.5,-2.5)">
      <path
         sodipodi:nodetypes="cccccccccccccccccccccccccccccccccccccccccccccccccccccccccscccccccccccccccccccc"
         inkscape:connector-curvature="0"
         d="m 375.97369,361.14432 c -2.80228,-1.44425 -5.46869,-3.12983 -8.18213,-4.73513 -1.50561,-0.99441 -3.1743,-1.72816 -4.48192,-2.98399 -1.58947,-1.0704 -2.77307,-2.56534 -4.13566,-3.88076 -1.20137,-1.27308 -2.14075,-2.75537 -3.12957,-4.19272 -0.84448,-0.99947 -1.80005,-1.88413 -2.65061,-2.87507 -0.81346,-0.72169 -1.15954,-1.68418 -1.67537,-2.59571 -0.48933,-1.12573 -1.18228,-2.13081 -1.6867,-3.24813 -0.0912,-0.76971 -0.4441,-1.31676 -0.79412,-1.93977 -0.73487,-1.24739 -1.40028,-2.56646 -1.94231,-3.91448 -0.39308,-1.65427 -1.00955,-3.23884 -1.38055,-4.89972 -0.24248,-1.95621 -1.02488,-3.77258 -1.60575,-5.63945 -0.58248,-1.98387 -0.7216,-4.04861 -0.80598,-6.10255 -0.12233,-1.77734 0.31837,-3.49932 0.976,-5.13242 0.50511,-1.67646 1.30218,-3.11971 2.42473,-4.44641 1.17318,-1.15613 2.3181,-2.3354 3.54942,-3.43078 1.35295,-0.91871 2.84835,-1.65826 4.41375,-2.13792 1.88071,-0.31874 3.73736,-0.76587 5.61697,-1.09536 3.31649,-0.53275 6.69709,-0.44335 10.01037,0.0646 1.91791,0.49418 3.65796,1.29168 5.36664,2.27347 1.94431,1.18221 3.46501,2.6507 4.64793,4.58484 1.22225,1.47316 1.80054,3.18209 2.11016,5.03865 0.30245,1.78431 0.10187,3.55836 -0.49608,5.256 -0.56876,1.60834 -1.26861,3.14643 -2.08125,4.64386 -0.66258,1.29846 -1.16669,2.79141 -0.16893,4.02807 1.26116,1.32436 3.08581,1.48617 4.75142,1.9543 1.83325,0.539 3.66214,1.23539 5.33574,2.16904 1.78441,1.22322 2.61886,2.95725 2.37546,5.08397 -0.2526,1.89041 -1.47547,3.33345 -2.40342,4.91844 -0.88494,1.39767 -1.65791,2.8793 -1.26142,4.55699 0.70157,1.21686 1.88508,1.86959 3.06919,2.54252 1.60511,0.69192 3.33798,1.03943 4.95073,1.70381 1.73235,0.57911 3.11351,1.74891 4.34659,3.05574 1.29671,1.15926 2.56282,2.29529 3.315,3.8842 0.66004,1.69361 0.73655,3.26524 -0.0293,4.90492 -1.26701,1.48795 -3.22927,2.13148 -5.06228,2.62636 -2.0254,0.65717 -4.04669,1.33002 -6.05268,2.04436 -1.97821,0.80638 -17.22542,-2.08168 -17.22542,-2.08168 l 3.86666,-0.83726 c 0,0 11.38912,3.16599 15.45164,0.34842 1.78379,-0.42838 3.63537,-1.02707 5.0175,-2.27989 0.80158,-1.61577 0.69346,-2.85437 0.0335,-4.54228 -0.77869,-1.52153 -2.0766,-2.59812 -3.30355,-3.76069 -1.23898,-1.25889 -2.62545,-2.33221 -4.32973,-2.88359 -1.64743,-0.60517 -3.38193,-0.99404 -4.96501,-1.76674 -1.24185,-0.75535 -2.48195,-1.47983 -3.09188,-2.87293 -0.35385,-1.78294 0.29957,-3.36035 1.27213,-4.85077 0.876,-1.55633 2.14104,-2.91991 2.4041,-4.75775 0.25186,-1.98851 -0.65437,-3.54628 -2.35032,-4.60673 -1.68839,-0.87661 -3.49259,-1.57433 -5.32545,-2.07801 -1.74213,-0.45495 -3.57449,-0.76472 -4.79393,-2.22809 -0.91486,-1.45359 -0.57889,-3.00171 0.17603,-4.47352 0.80335,-1.48281 1.52348,-2.98789 2.07541,-4.58643 0.62373,-1.61568 0.78698,-3.33692 0.50031,-5.04733 -0.31347,-1.81039 -0.92875,-3.43687 -2.10045,-4.88288 -1.18775,-1.85869 -2.71476,-3.26626 -4.62406,-4.38751 -1.6959,-0.94346 -3.45216,-1.70279 -5.35597,-2.12791 -1.40906,-0.20819 -4.95375,-0.31613 0.91668,-0.34842 3.00404,-0.0165 -5.95426,0.0701 -3.01534,0.277 -1.87981,0.30438 -3.71535,0.80554 -5.60343,1.05275 -1.56543,0.41063 -3.00789,1.14444 -4.39489,1.96373 -1.24827,1.0562 -2.34378,2.26287 -3.5435,3.37011 -1.10643,1.29934 -1.95989,2.64238 -2.41658,4.31933 -0.64709,1.57874 -1.11089,3.23367 -0.98347,4.9614 0.0836,2.01933 0.22024,4.04969 0.80295,5.99776 0.59143,1.87511 1.36103,3.70624 1.61484,5.67141 0.37691,1.6352 0.97062,3.20739 1.38006,4.83314 0.55464,1.32416 1.19893,2.63317 1.95968,3.84792 0.42142,0.61611 0.58812,1.26884 0.78795,1.99047 0.50782,1.10285 1.19464,2.10669 1.68375,3.22012 0.47567,0.90985 0.91236,1.78543 1.67237,2.50813 0.86921,0.98574 1.8262,1.88863 2.64415,2.9223 0.96595,1.42275 1.90796,2.87754 3.11102,4.11576 1.34188,1.33924 2.5925,2.75948 4.14837,3.8674 1.33003,1.17811 2.97574,1.91462 4.44461,2.9034 2.71086,1.61556 5.25163,2.87387 8.06664,4.3024 l -3.84145,0.84373 z"
         id="path3827"
         style="opacity:0.69120029;fill:#ff2a2a;fill-opacity:1;stroke:none" />
      <path
         inkscape:connector-curvature="0"
         id="path3862"
         d="m 382.7264,360.92605 c -2.27582,-0.47843 -4.03749,-1.17975 -7.03769,-2.80169 -7.7447,-4.18689 -10.48005,-6.28998 -13.88449,-10.67518 -1.16244,-1.49732 -2.89302,-3.61943 -3.84572,-4.71579 -2.20038,-2.5322 -6.32279,-10.98254 -7.5566,-15.48995 -0.49518,-1.80904 -1.22549,-4.36416 -1.62291,-5.67804 -1.15447,-3.81676 -1.50464,-7.98953 -0.87373,-10.41175 0.80743,-3.09993 2.10865,-5.35415 4.37172,-7.57352 2.58144,-2.53158 5.3803,-3.87221 9.71496,-4.65337 2.86989,-0.5172 3.6419,-0.54001 5.17857,-0.15303 5.72019,1.4405 10.27005,5.77753 11.24158,10.71573 0.53876,2.73847 0.1744,4.54902 -1.80639,8.97628 -0.75861,1.69558 -1.3793,3.41093 -1.3793,3.81188 0,1.60242 1.66646,2.85861 5.29331,3.99012 7.97366,2.48764 9.45595,4.97054 6.12044,10.25195 -1.86478,2.95267 -2.45049,5.09331 -1.75115,6.40006 0.70251,1.31264 2.62855,2.52113 5.64405,3.54134 3.55904,1.20411 4.37904,1.6879 6.97169,4.1132 4.42509,4.13946 4.48039,7.62354 0.14699,9.26108 -0.64643,0.24428 -1.92834,0.74864 -2.84868,1.12081 -2.17276,0.87862 -7.82085,0.86453 -12.07665,-0.0301 l 0,10e-6 z"
         style="opacity:0.69120022999999997;fill:#ffbc26;fill-opacity:1;stroke:none" />
    </g>
    <g
       id="g3882"
       transform="matrix(0.98843027,0.15167595,-0.15167595,0.98843027,3.5264705,10.84382)">
      <path
         inkscape:connector-curvature="0"
         d="m 274.68788,286.40005 c -0.95813,-3.49065 -2.21616,-6.86803 -3.54007,-10.23048 -1.05767,-2.90573 -2.14682,-5.80612 -3.45524,-8.60959 -1.06243,-2.33662 -2.1366,-4.66276 -3.18765,-7.00429 -0.78315,-2.07398 -1.65782,-4.10789 -2.48205,-6.16681 -0.78346,-2.0429 -1.50915,-4.07666 -1.90769,-6.23251 -0.58133,-1.99665 -0.96655,-4.02797 -1.17877,-6.0944 0,0 3.99541,-0.0411 3.99541,-0.0411 l 0,0 c 0.21346,2.05585 0.61023,4.0728 1.1773,6.06191 0.39984,2.12806 1.12833,4.13568 1.9019,6.15358 0.82815,2.05076 1.69006,4.0855 2.47612,6.15198 1.04155,2.34388 2.12922,4.66167 3.18512,6.99921 1.28969,2.81655 2.37239,5.72201 3.42666,8.63348 1.33634,3.38012 2.57426,6.78544 3.58424,10.28113 0,0 -3.99528,0.0979 -3.99528,0.0979 z"
         id="path3797"
         style="opacity:0.69120029;fill:#ff2a2a;fill-opacity:1;stroke:none" />
      <path
         sodipodi:nodetypes="ccccccccccccccccccccccccccccccccccccsccccccccccccccccccsccccsccccc"
         inkscape:connector-curvature="0"
         d="m 258.36152,242.02336 c 2.71824,-1.15379 9.86567,-1.64119 12.77169,-2.1223 2.03256,-0.30247 4.08852,-0.3588 6.1396,-0.3921 5.26387,-0.29067 3.91581,-0.5313 6.36125,1.33753 1.01265,1.07139 1.11765,2.59646 1.25046,3.9931 0.25261,1.86557 0.0294,3.66079 -0.33841,5.4856 -0.30338,1.22731 -0.0648,2.65478 -1.10655,3.5147 -0.92352,0.63454 -2.02057,0.90811 -3.07032,1.25772 -0.74785,0.44732 -1.46577,0.82411 -2.32486,1.01284 -0.70132,0.11813 -1.40968,0.0965 -2.10491,0.25992 -0.22624,0.0532 -0.42488,0.31971 -0.64844,0.25621 -0.0516,-0.0147 0.0696,-0.0816 0.10446,-0.12233 1.32138,-0.0614 2.56587,0.39351 3.83475,0.68936 2.30904,0.34694 4.61945,0.5946 6.90185,1.11145 2.84593,0.53799 5.61432,1.31942 8.35389,2.24748 2.14441,0.72626 4.2416,1.50506 6.4777,1.9033 1.97545,0.60545 3.99682,0.96932 6.04963,1.16707 1.65953,0.31824 3.5583,-0.28937 5.09117,0.52714 0.4197,1.08757 -0.99526,1.65223 -1.73644,2.10918 -1.52099,0.77535 -2.70627,2.03064 -4.0481,3.06494 -1.75386,1.18286 -3.42939,2.48897 -5.19423,3.65365 -1.7321,1.04694 -3.36228,2.26978 -5.12617,3.26507 -4.18487,2.7265 -2.53517,2.39839 -8.65048,2.25687 -1.77916,-0.69701 -2.79756,-2.38896 -4.02953,-3.7543 -1.38981,-1.49479 -3.04775,-2.77051 -4.7886,-3.83141 1.09122,-0.61799 -0.68554,-0.0628 -0.51316,-0.0771 3.96031,-0.32962 4.03918,-0.91106 6.75205,0.51591 1.30259,1.02654 2.02095,2.65412 2.58917,4.18228 0.70558,1.941 -0.59288,3.22803 -1.8528,4.51657 -1.60473,1.43751 -4.70345,5.10766 -6.65747,6.00207 l -3.96624,-0.46031 0,0 c 1.95199,-0.82825 5.01666,-4.4834 6.63809,-5.85245 1.16152,-1.1699 2.52505,-2.25479 1.83666,-4.06034 -0.563,-1.44548 -1.23098,-3.00743 -2.56612,-3.88363 -0.96501,-0.44595 -0.52963,-0.27486 -1.54488,-0.62188 -0.22739,-0.0777 -0.91099,-0.15312 -0.68328,-0.22993 3.25334,-1.09737 2.49318,-1.16416 3.95275,-0.43208 1.72,1.14754 3.41286,2.38511 4.78976,3.94017 1.18946,1.33083 2.19979,2.98129 4.01243,3.49169 -6.31903,0.31692 -3.60036,0.41465 -2.48894,-0.0428 1.19268,-0.49095 2.08977,-1.45686 3.19785,-2.08636 1.78801,-0.94355 3.38822,-2.20856 5.12165,-3.23882 1.79629,-1.09822 3.41684,-2.4891 5.1971,-3.62045 1.36642,-1.01696 2.51975,-2.31689 4.0326,-3.11169 0.46235,-0.26392 1.67067,-0.82055 1.73143,-1.23024 -1.60599,-0.54439 -3.39566,-0.0889 -5.04908,-0.40741 -2.05296,-0.22819 -4.06241,-0.64827 -6.05322,-1.20031 -2.22488,-0.44564 -4.3248,-1.24681 -6.47331,-1.9599 -2.73178,-0.92306 -5.50835,-1.64818 -8.33904,-2.20451 -2.2984,-0.47986 -4.62683,-0.69922 -6.93367,-1.11532 -1.28938,-0.31569 -2.71952,-0.43854 -3.89169,-0.99388 -0.28438,-1.30798 1.8633,-1.06468 2.69736,-1.18019 0.87329,-0.12252 1.63209,-0.3669 2.30702,-0.95835 1.03571,-0.33841 2.1264,-0.57509 3.06374,-1.14644 0.14718,-0.0773 0.56298,-0.26099 0.65038,-0.43846 0.39323,-0.79849 0.0769,-1.95023 0.4563,-2.76431 0.36111,-1.78755 0.60395,-3.53738 0.33849,-5.36688 -0.13118,-1.30361 -0.2205,-2.74152 -1.25317,-3.67816 -0.32999,-0.29132 -0.6365,-0.65212 -1.03642,-0.85122 -0.13187,-0.0657 -0.56199,-0.14181 -0.41503,-0.15187 1.05622,-0.0723 5.16076,-0.0618 3.05891,-0.0654 -2.05733,0.0163 -4.11942,0.0595 -6.16192,0.33004 -2.89457,0.43906 -10.03709,0.88103 -12.74101,2.02665 l -3.9727,-0.46529 z"
         id="path3803"
         style="opacity:0.69120029;fill:#ff2a2a;fill-opacity:1;stroke:none" />
      <path
         inkscape:connector-curvature="0"
         id="path3866"
         d="m 277.55356,282.61499 c -1.26015,-3.74001 -5.17328,-13.61347 -7.32499,-18.48214 -1.51919,-3.4375 -3.34325,-7.77679 -4.05346,-9.64286 -1.21224,-3.18517 -3.09008,-10.16541 -3.0911,-11.49016 -6.4e-4,-0.81617 1.49893,-1.23993 6.60668,-1.86694 8.8176,-1.08242 8.53689,-1.07792 9.60808,-0.1539 1.61701,1.39483 2.01792,4.7942 1.1496,9.7475 l -0.43588,2.4865 -2.83947,1.15752 c -1.56171,0.63663 -3.34212,1.16503 -3.95646,1.17421 -0.61434,0.009 -1.31484,0.25511 -1.55667,0.54649 -0.62556,0.75375 0.50041,1.11357 6.76134,2.16072 5.41431,0.90555 7.98785,1.5418 14.35151,3.54806 4.60203,1.45089 8.6323,2.29834 12.48068,2.62434 l 2.88309,0.24423 -2.61577,1.86696 c -1.43867,1.02683 -3.90148,2.79926 -5.47291,3.93874 -3.29998,2.39289 -9.69518,6.51573 -10.10696,6.51573 -0.36262,0 -2.87923,-2.66227 -4.1055,-4.34312 -1.3014,-1.78382 -3.54834,-2.63534 -5.84622,-2.21553 l -1.70085,0.31074 1.87059,1.34388 c 1.02882,0.73914 2.18751,1.86367 2.57486,2.49896 1.23119,2.01927 0.97121,2.83899 -1.83847,5.79685 -2.57435,2.71012 -3.06953,3.04104 -3.34172,2.23322 l 0,0 z"
         style="opacity:0.69120029;fill:#10caa5;fill-opacity:1;stroke:none" />
    </g>
    <g
       id="g3887"
       transform="translate(-35.714286,51.071429)">
      <g
         transform="translate(21.358586,-28.643218)"
         id="g3852">
        <path
           inkscape:connector-curvature="0"
           d="m 275.64348,277.07563 c 2.49079,-0.8832 4.95074,-1.74605 7.18002,-3.18293 1.55188,-1.24392 2.80834,-2.82695 3.53204,-4.68131 0.84792,-1.50138 1.10604,-3.18054 1.52239,-4.82235 0.58278,-1.87336 0.86701,-3.72903 0.36895,-5.64537 -0.60529,-0.92417 -1.28568,-1.40963 -2.3889,-1.43648 -0.31748,-0.008 -1.27011,0.004 -0.95264,0.0118 0.91292,0.0225 1.82626,0.0215 2.73939,0.0323 -2.12591,0.17501 -4.14423,0.80102 -5.90393,2.00836 -1.78067,1.18851 -3.6286,2.32529 -5.20865,3.77829 -1.61793,1.33833 -2.99873,2.88781 -4.3443,4.48995 -1.50027,1.75922 -2.96432,3.31706 -3.80346,5.50728 -0.71434,2.36918 -0.77984,4.38721 0.003,6.71903 0.74397,1.79576 2.18525,3.07696 3.60761,4.33413 1.72549,1.30588 3.56807,2.44919 5.56629,3.28333 1.59185,0.75305 3.14435,1.61362 4.78565,2.25492 1.72615,0.55679 3.55204,0.60656 5.34894,0.6605 -3.27342,0.0558 6.22438,0.0229 2.98933,0.0241 -6.07307,0.002 -2.22351,-0.002 -0.9154,-0.005 2.08002,-0.10774 4.06617,-0.71037 6.06284,-1.24398 1.32993,-0.10846 2.55219,-0.3458 3.74222,-0.93065 0.55228,-0.12875 0.66616,-0.19716 0.42914,-0.81589 -0.37398,-0.97349 -0.70241,-1.94773 -0.85792,-2.9807 -0.41732,-1.13878 -1.1181,-2.14784 -1.96871,-3.00847 -0.73098,-0.43557 -1.49234,-1.15861 -2.37849,-1.27489 -0.62866,0.0551 -0.32809,0.0661 -0.90219,-0.0155 -2.04955,-0.12931 -4.06292,-0.56457 -6.09827,-0.83665 -1.61363,-0.0754 -3.0714,-0.31921 -4.55239,-0.92292 -1.06706,-0.43884 -2.25181,-0.32245 -3.35081,-0.62575 -0.56811,-0.0747 -1.10004,-0.65033 -1.65998,-0.48299 0,0 3.98064,-0.62346 3.98064,-0.62346 l 0,0 c 0.55631,0.17495 1.07907,0.44741 1.65394,0.56901 1.12531,0.20809 2.30829,0.19942 3.36648,0.68905 1.44644,0.59306 2.96396,0.64348 4.50655,0.82719 2.04333,0.28595 4.0717,0.69314 6.13345,0.82097 1.28198,0.0997 2.3322,0.73613 3.2956,1.57319 0.85854,0.95015 1.62178,2.00843 1.99195,3.24894 0.16397,1.0095 0.49648,1.96336 0.86046,2.91731 0.13403,0.47604 0.34005,1.50745 -0.45282,1.42779 -0.49367,0.12917 -0.82639,0.48383 -1.32123,0.63534 -0.78326,0.23981 -1.65339,0.23369 -2.45772,0.33239 -2.01288,0.5197 -3.98988,1.16551 -6.07598,1.34473 -3.32367,0.009 -6.64802,0.0389 -9.97113,-0.0313 -1.81375,-0.0719 -3.65681,-0.15558 -5.37536,-0.79988 -1.61815,-0.69373 -3.18461,-1.50846 -4.77446,-2.26427 -1.99576,-0.89626 -3.86862,-2.04577 -5.5819,-3.4089 -1.46453,-1.30375 -2.8916,-2.67586 -3.62015,-4.54462 -0.75314,-2.3406 -0.70679,-4.61935 0.003,-6.98933 0.92396,-2.5031 2.1466,-3.65904 3.81169,-5.64176 1.34806,-1.61359 2.69724,-3.20895 4.34236,-4.53617 1.54499,-1.5066 3.41612,-2.64596 5.21011,-3.83122 1.73654,-1.31996 3.78721,-1.98197 5.94443,-2.24325 1.71677,-0.0132 3.4335,-0.0402 5.15032,-0.0395 1.58219,5.6e-4 2.63151,0.50133 3.39082,1.94684 0.46985,1.98565 0.24371,3.90477 -0.36972,5.84273 -0.42691,1.65214 -0.64367,3.36274 -1.52233,4.86735 -0.71832,1.94122 -1.99409,3.58616 -3.56479,4.92908 -2.22402,1.50019 -4.67671,2.36922 -7.17733,3.30573 0,0 -3.96827,-0.51577 -3.96827,-0.51577 z"
           id="path3854"
           style="opacity:0.69120029;fill:#ff2a2a;fill-opacity:1;stroke:none" />
        <path
           inkscape:connector-curvature="0"
           d="m 286.88931,266.05735 c -2.9703,0.8412 -5.65486,2.24867 -8.04934,4.18002 -0.23841,0.25748 -0.47682,0.51497 -0.71523,0.77246 0,0 -3.98216,-0.29201 -3.98216,-0.29201 l 0,0 c 0.24208,-0.27729 0.48416,-0.55459 0.72624,-0.83189 2.37257,-1.98731 5.06886,-3.45606 8.05491,-4.31159 0,0 3.96558,0.48301 3.96558,0.48301 z"
           id="path3856"
           style="opacity:0.69120029;fill:#ff2a2a;fill-opacity:1;stroke:none" />
      </g>
      <path
         inkscape:connector-curvature="0"
         id="path3868"
         d="m 304.86926,261.37854 c -1.39497,-0.24535 -9.27524,-4.21918 -11.16129,-5.62838 -2.07268,-1.54864 -3.70565,-3.73775 -4.24464,-5.69021 -0.61461,-2.22642 0.0587,-5.5565 1.58977,-7.86241 3.33705,-5.02596 10.99829,-11.53104 15.19846,-12.90484 1.86656,-0.61052 1.8991,-0.6086 2.66438,0.15748 0.62331,0.62397 0.76914,1.17486 0.74606,2.8184 -0.0383,2.72848 -1.3856,7.4714 -2.77435,9.76681 -1.47756,2.44219 -3.10834,3.70062 -6.64181,5.12533 -2.83897,1.14469 -3.08427,1.61498 -0.84237,1.61498 0.4974,0 2.53336,0.39085 4.52436,0.86854 1.991,0.4777 5.60464,1.13058 8.03031,1.45084 5.29759,0.69944 5.68257,0.83196 7.09716,2.4431 0.93588,1.06591 2.24253,4.2896 2.24253,5.53265 0,0.45189 -1.38633,0.90475 -5.62122,1.83622 -3.09259,0.68022 -8.32313,0.90841 -10.80735,0.47149 z m -4.35941,-19.93909 c 1.04729,-0.9835 6.219,-3.70868 7.16862,-3.77743 0.90313,-0.0654 -1.40367,-0.5823 -2.80921,-0.62949 -1.47686,-0.0496 -5.07251,1.56838 -7.58636,3.41371 -1.98264,1.45539 -1.81735,1.88635 0.72695,1.89542 1.15553,0.004 1.77165,-0.21822 2.5,-0.90221 l 0,0 z"
         style="opacity:0.69120029;fill:#3fd5b7;fill-opacity:1;stroke:none" />
    </g>
    <g
       id="g3893"
       transform="translate(-32.5,52.142857)">
      <g
         transform="translate(49.642857,-35.714286)"
         id="g3829">
        <path
           style="opacity:0.69120029;fill:#ff2a2a;fill-opacity:1;stroke:none"
           id="path3807"
           d="m 275.64348,277.07563 c 2.49079,-0.8832 4.95074,-1.74605 7.18002,-3.18293 1.55188,-1.24392 2.80834,-2.82695 3.53204,-4.68131 0.84792,-1.50138 1.10604,-3.18054 1.52239,-4.82235 0.58278,-1.87336 0.86701,-3.72903 0.36895,-5.64537 -0.60529,-0.92417 -1.28568,-1.40963 -2.3889,-1.43648 -0.31748,-0.008 -1.27011,0.004 -0.95264,0.0118 0.91292,0.0225 1.82626,0.0215 2.73939,0.0323 -2.12591,0.17501 -4.14423,0.80102 -5.90393,2.00836 -1.78067,1.18851 -3.6286,2.32529 -5.20865,3.77829 -1.61793,1.33833 -2.99873,2.88781 -4.3443,4.48995 -1.50027,1.75922 -2.96432,3.31706 -3.80346,5.50728 -0.71434,2.36918 -0.77984,4.38721 0.003,6.71903 0.74397,1.79576 2.18525,3.07696 3.60761,4.33413 1.72549,1.30588 3.56807,2.44919 5.56629,3.28333 1.59185,0.75305 3.14435,1.61362 4.78565,2.25492 1.72615,0.55679 3.55204,0.60656 5.34894,0.6605 -3.27342,0.0558 6.22438,0.0229 2.98933,0.0241 -6.07307,0.002 -2.22351,-0.002 -0.9154,-0.005 2.08002,-0.10774 4.06617,-0.71037 6.06284,-1.24398 1.32993,-0.10846 2.55219,-0.3458 3.74222,-0.93065 0.55228,-0.12875 0.66616,-0.19716 0.42914,-0.81589 -0.37398,-0.97349 -0.70241,-1.94773 -0.85792,-2.9807 -0.41732,-1.13878 -1.1181,-2.14784 -1.96871,-3.00847 -0.73098,-0.43557 -1.49234,-1.15861 -2.37849,-1.27489 -0.62866,0.0551 -0.32809,0.0661 -0.90219,-0.0155 -2.04955,-0.12931 -4.06292,-0.56457 -6.09827,-0.83665 -1.61363,-0.0754 -3.0714,-0.31921 -4.55239,-0.92292 -1.06706,-0.43884 -2.25181,-0.32245 -3.35081,-0.62575 -0.56811,-0.0747 -1.10004,-0.65033 -1.65998,-0.48299 0,0 3.98064,-0.62346 3.98064,-0.62346 l 0,0 c 0.55631,0.17495 1.07907,0.44741 1.65394,0.56901 1.12531,0.20809 2.30829,0.19942 3.36648,0.68905 1.44644,0.59306 2.96396,0.64348 4.50655,0.82719 2.04333,0.28595 4.0717,0.69314 6.13345,0.82097 1.28198,0.0997 2.3322,0.73613 3.2956,1.57319 0.85854,0.95015 1.62178,2.00843 1.99195,3.24894 0.16397,1.0095 0.49648,1.96336 0.86046,2.91731 0.13403,0.47604 0.34005,1.50745 -0.45282,1.42779 -0.49367,0.12917 -0.82639,0.48383 -1.32123,0.63534 -0.78326,0.23981 -1.65339,0.23369 -2.45772,0.33239 -2.01288,0.5197 -3.98988,1.16551 -6.07598,1.34473 -3.32367,0.009 -6.64802,0.0389 -9.97113,-0.0313 -1.81375,-0.0719 -3.65681,-0.15558 -5.37536,-0.79988 -1.61815,-0.69373 -3.18461,-1.50846 -4.77446,-2.26427 -1.99576,-0.89626 -3.86862,-2.04577 -5.5819,-3.4089 -1.46453,-1.30375 -2.8916,-2.67586 -3.62015,-4.54462 -0.75314,-2.3406 -0.70679,-4.61935 0.003,-6.98933 0.92396,-2.5031 2.1466,-3.65904 3.81169,-5.64176 1.34806,-1.61359 2.69724,-3.20895 4.34236,-4.53617 1.54499,-1.5066 3.41612,-2.64596 5.21011,-3.83122 1.73654,-1.31996 3.78721,-1.98197 5.94443,-2.24325 1.71677,-0.0132 3.4335,-0.0402 5.15032,-0.0395 1.58219,5.6e-4 2.63151,0.50133 3.39082,1.94684 0.46985,1.98565 0.24371,3.90477 -0.36972,5.84273 -0.42691,1.65214 -0.64367,3.36274 -1.52233,4.86735 -0.71832,1.94122 -1.99409,3.58616 -3.56479,4.92908 -2.22402,1.50019 -4.67671,2.36922 -7.17733,3.30573 0,0 -3.96827,-0.51577 -3.96827,-0.51577 z"
           inkscape:connector-curvature="0" />
        <path
           style="opacity:0.69120029;fill:#ff2a2a;fill-opacity:1;stroke:none"
           id="path3811"
           d="m 286.88931,266.05735 c -2.9703,0.8412 -5.65486,2.24867 -8.04934,4.18002 -0.23841,0.25748 -0.47682,0.51497 -0.71523,0.77246 0,0 -3.98216,-0.29201 -3.98216,-0.29201 l 0,0 c 0.24208,-0.27729 0.48416,-0.55459 0.72624,-0.83189 2.37257,-1.98731 5.06886,-3.45606 8.05491,-4.31159 0,0 3.96558,0.48301 3.96558,0.48301 z"
           inkscape:connector-curvature="0" />
      </g>
      <path
         inkscape:connector-curvature="0"
         id="path3870"
         d="m 333.08354,254.23772 c -1.53454,-0.26638 -8.75601,-3.88344 -10.8674,-5.44321 -3.75106,-2.77107 -5.20069,-5.91281 -4.48049,-9.71041 0.46022,-2.42677 1.48677,-4.12528 4.74715,-7.85459 4.0154,-4.5929 9.96221,-8.81764 12.87381,-9.14582 1.33625,-0.15061 1.64077,-0.0569 2.1423,0.65912 0.76328,1.08973 0.73488,2.71004 -0.10886,6.21146 -1.46065,6.06152 -3.21945,8.46568 -7.75199,10.59641 -1.60037,0.75234 -3.08698,1.36788 -3.30357,1.36788 -0.21659,0 -0.3938,0.16071 -0.3938,0.35714 0,0.19643 0.44196,0.36062 0.98214,0.36488 0.54018,0.004 2.42857,0.33834 4.19643,0.74242 1.76786,0.40409 5.67589,1.10044 8.68451,1.54745 5.84558,0.86852 6.6972,1.21943 8.15485,3.36017 0.92776,1.36253 1.77325,4.62247 1.31716,5.07856 -0.17678,0.17679 -2.11494,0.72629 -4.307,1.22112 -3.79373,0.85638 -9.03637,1.14197 -11.88524,0.64742 z m -3.77274,-20.24756 c 1.43083,-1.09218 3.79912,-2.34837 6.27274,-3.32719 0.79935,-0.3163 0.68322,-0.37954 -1.10892,-0.6038 -1.68772,-0.21119 -2.36011,-0.10689 -4.28572,0.66484 -2.30725,0.92469 -5.67857,3.21125 -5.9475,4.03384 -0.10386,0.31766 0.37678,0.44642 1.66644,0.44642 1.51107,0 2.07681,-0.20184 3.40296,-1.21411 l 0,0 z"
         style="opacity:0.69120029;fill:#4ad5dc;fill-opacity:1;stroke:none" />
    </g>
    <g
       style="display:inline"
       id="g5060"
       transform="matrix(-0.1422903,-0.05995701,-0.05995701,0.1422903,285.35215,139.15297)"
       inkscape:transform-center-x="-18.571429"
       inkscape:transform-center-y="12.857143">
      <path
         style="opacity:0.69120029;fill:#ffffff;stroke:#000000;stroke-width:1px;stroke-linecap:butt;stroke-linejoin:miter;stroke-opacity:1"
         d="m -82.994799,1255.6303 c 0,0 61.716796,-21.7408 62.775135,-98.9955 1.058282,-77.2545 -53.641305,-133.8753 -93.508696,-116.1938 -39.8674,17.6814 -49.75008,102.7401 -37.88652,133.414 11.86362,30.6739 68.620081,81.7753 68.620081,81.7753 z"
         id="path5058"
         inkscape:connector-curvature="0" />
      <path
         style="fill:none;stroke:#000000;stroke-width:4.91034651;stroke-linecap:butt;stroke-linejoin:miter;stroke-miterlimit:4;stroke-opacity:1;stroke-dasharray:none;marker-end:url(#DotM)"
         d="m 47.076602,1264.7142 c 0,0 9.129807,-26.7716 23.737497,-41.4528 14.6077,-14.6812 35.606271,-44.0435 35.606271,-44.0435"
         id="path5020"
         inkscape:connector-curvature="0"
         sodipodi:nodetypes="csc" />
      <path
         d="m 149.50258,1319.0425 c 0,64.7154 -85.929535,117.1777 -191.928987,117.1777 -105.999453,0 -191.928983,-52.4623 -191.928983,-117.1777 0,-64.7155 85.92953,-117.1777 191.928983,-117.1777 105.999452,0 191.928987,52.4622 191.928987,117.1777 z"
         sodipodi:ry="117.1777"
         sodipodi:rx="191.92899"
         sodipodi:cy="1319.0425"
         sodipodi:cx="-42.426407"
         id="path4378"
         style="fill:#fffe00;fill-opacity:1;stroke:#ffffff;stroke-width:9.82284545999999992;stroke-miterlimit:4;stroke-dasharray:none"
         sodipodi:type="arc" />
      <g
         clip-path="url(#clipPath5044)"
         id="g5022">
        <path
           style="fill:#1f241c;stroke:none"
           d="m -120.56634,1192.7342 c 0,0 -57.2975,56.5131 -47.18617,130.6864 10.11132,74.1734 57.2975,130.6865 57.2975,130.6865 l -60.66795,0 c 0,0 -50.55662,-38.8528 -47.18618,-141.2827 3.37045,-102.4299 43.81574,-123.6223 43.81574,-123.6223 z"
           id="path4380"
           inkscape:connector-curvature="0" />
        <path
           inkscape:connector-curvature="0"
           id="path4382"
           d="m 5.6061176,1185.7626 c 0,0 -73.9466906,59.256 -60.8972656,137.0293 13.049415,77.7734 73.946683,137.0293 73.946683,137.0293 l -78.296498,0 c 0,0 -65.247067,-40.7385 -60.897267,-148.1398 4.3498,-107.4013 56.547462,-129.6223 56.547462,-129.6223 z"
           style="fill:#1f241c;stroke:none" />
      </g>
      <path
         sodipodi:nodetypes="csc"
         inkscape:connector-curvature="0"
         id="path4388"
         d="m 29.933745,1233.8571 c 0,0 16.272667,-13.9145 30.880354,-28.5957 14.6077,-14.6812 35.60627,-44.0435 35.60627,-44.0435"
         style="fill:none;stroke:#000000;stroke-width:4.91034651;stroke-linecap:butt;stroke-linejoin:miter;stroke-miterlimit:4;stroke-opacity:1;stroke-dasharray:none;marker-end:url(#DotM)" />
      <path
         transform="matrix(0.7368421,0,0,0.7368421,24.526316,351.95998)"
         d="m 60,1262.3622 c 0,7.8898 -4.477153,14.2857 -10,14.2857 -5.522847,0 -10,-6.3959 -10,-14.2857 0,-7.8898 4.477153,-14.2857 10,-14.2857 5.522847,0 10,6.3959 10,14.2857 z"
         sodipodi:ry="14.285714"
         sodipodi:rx="10"
         sodipodi:cy="1262.3622"
         sodipodi:cx="50"
         id="path5048"
         style="fill:#000000;fill-opacity:1;stroke:none"
         sodipodi:type="arc" />
      <path
         sodipodi:type="arc"
         style="fill:#000000;fill-opacity:1;stroke:none"
         id="path5050"
         sodipodi:cx="50"
         sodipodi:cy="1262.3622"
         sodipodi:rx="10"
         sodipodi:ry="14.285714"
         d="m 60,1262.3622 c 0,7.8898 -4.477153,14.2857 -10,14.2857 -5.522847,0 -10,-6.3959 -10,-14.2857 0,-7.8898 4.477153,-14.2857 10,-14.2857 5.522847,0 10,6.3959 10,14.2857 z"
         transform="matrix(0.7368421,0,0,0.7368421,45.157895,349.01261)" />
      <path
         sodipodi:nodetypes="cssc"
         inkscape:connector-curvature="0"
         id="path5054"
         d="m 29.142857,1339.2192 c 0,0 7.142858,24.2858 30,28.5715 C 82,1372.0764 112.00001,1360.6478 117.71429,1352.0764 123.42858,1343.505 122,1324.9335 122,1324.9335"
         style="fill:none;stroke:#000000;stroke-width:3.79999995;stroke-linecap:butt;stroke-linejoin:miter;stroke-miterlimit:4;stroke-opacity:1;stroke-dasharray:none" />
      <path
         inkscape:connector-curvature="0"
         id="path5056"
         d="m -80,1255.2193 c 0,0 38.571428,-52.8571 -4.285715,-117.1429 -42.857145,-64.2857 -120.000005,-80 -142.857145,-42.8571 C -250,1132.3622 -210,1208.0764 -182.85714,1226.6479 -155.71429,1245.2193 -80,1255.2193 -80,1255.2193 z"
         style="opacity:0.69120029;fill:#ffffff;stroke:#000000;stroke-width:1px;stroke-linecap:butt;stroke-linejoin:miter;stroke-opacity:1" />
    </g>
    <path
       style="fill:none;stroke:#000000;stroke-width:1;stroke-linecap:butt;stroke-linejoin:miter;stroke-miterlimit:4;stroke-opacity:1;stroke-dasharray:2, 2;stroke-dashoffset:0"
       d="m 245.71428,340.21933 c 34.00513,17.91809 81.40885,-28.99013 51.42857,-27.85715 -28.2165,11.30943 20.50582,39.24129 42.85715,5.71429 22.53033,-33.79549 -13.57143,-39.85436 -13.57143,-16.42857 0,32.06021 59.61579,33.22513 70.71429,7.85714"
       id="path4262"
       inkscape:connector-curvature="0"
       sodipodi:nodetypes="ccssc" />
  </g>
</svg>
